ISO-10303-21;
HEADER;
/* Generated by software containing ST-Developer
 * from STEP Tools, Inc. (www.steptools.com) 
 */

FILE_DESCRIPTION(
/* description */ (''),
/* implementation_level */ '2;1');

FILE_NAME(
/* name */ 'Body92.step',
/* time_stamp */ '2026-09-03T17:15:13+01:00',
/* author */ (''),
/* organization */ (''),
/* preprocessor_version */ 'ST-DEVELOPER v20.1',
/* originating_system */ 'Autodesk Translation Framework v15.8.0.0',
/* authorisation */ '');

FILE_SCHEMA (('AUTOMOTIVE_DESIGN { 1 0 10303 214 3 1 1 }'));
ENDSEC;

DATA;
#10=MECHANICAL_DESIGN_GEOMETRIC_PRESENTATION_REPRESENTATION('',(#13),#185);
#11=SHAPE_REPRESENTATION_RELATIONSHIP('SRR','None',#192,#12);
#12=ADVANCED_BREP_SHAPE_REPRESENTATION('',(#14),#184);
#13=STYLED_ITEM('',(#201),#14);
#14=MANIFOLD_SOLID_BREP('Body92',#105);
#15=CYLINDRICAL_SURFACE('',#126,0.124332472651556);
#16=CIRCLE('',#125,0.124332472651556);
#17=FACE_OUTER_BOUND('',#23,.T.);
#18=FACE_OUTER_BOUND('',#24,.T.);
#19=FACE_OUTER_BOUND('',#25,.T.);
#20=FACE_OUTER_BOUND('',#26,.T.);
#21=FACE_OUTER_BOUND('',#27,.T.);
#22=FACE_OUTER_BOUND('',#28,.T.);
#23=EDGE_LOOP('',(#70,#71,#72,#73,#74));
#24=EDGE_LOOP('',(#75,#76,#77));
#25=EDGE_LOOP('',(#78,#79,#80,#81));
#26=EDGE_LOOP('',(#82,#83,#84,#85));
#27=EDGE_LOOP('',(#86,#87,#88,#89,#90));
#28=EDGE_LOOP('',(#91,#92,#93));
#29=LINE('',#161,#39);
#30=LINE('',#163,#40);
#31=LINE('',#165,#41);
#32=LINE('',#166,#42);
#33=LINE('',#169,#43);
#34=LINE('',#170,#44);
#35=LINE('',#173,#45);
#36=LINE('',#174,#46);
#37=LINE('',#177,#47);
#38=LINE('',#178,#48);
#39=VECTOR('',#133,1.);
#40=VECTOR('',#134,1.);
#41=VECTOR('',#135,1.);
#42=VECTOR('',#136,1.);
#43=VECTOR('',#139,1.);
#44=VECTOR('',#140,1.);
#45=VECTOR('',#143,1.);
#46=VECTOR('',#144,1.);
#47=VECTOR('',#147,1.);
#48=VECTOR('',#148,1.);
#49=ELLIPSE('',#120,0.12485144787718,0.124332472651556);
#50=VERTEX_POINT('',#157);
#51=VERTEX_POINT('',#158);
#52=VERTEX_POINT('',#160);
#53=VERTEX_POINT('',#162);
#54=VERTEX_POINT('',#164);
#55=VERTEX_POINT('',#168);
#56=VERTEX_POINT('',#172);
#57=VERTEX_POINT('',#176);
#58=EDGE_CURVE('',#50,#51,#49,.T.);
#59=EDGE_CURVE('',#52,#51,#29,.T.);
#60=EDGE_CURVE('',#52,#53,#30,.T.);
#61=EDGE_CURVE('',#53,#54,#31,.T.);
#62=EDGE_CURVE('',#54,#50,#32,.T.);
#63=EDGE_CURVE('',#55,#52,#33,.T.);
#64=EDGE_CURVE('',#53,#55,#34,.T.);
#65=EDGE_CURVE('',#56,#54,#35,.T.);
#66=EDGE_CURVE('',#55,#56,#36,.T.);
#67=EDGE_CURVE('',#57,#56,#37,.T.);
#68=EDGE_CURVE('',#57,#50,#38,.T.);
#69=EDGE_CURVE('',#51,#57,#16,.T.);
#70=ORIENTED_EDGE('',*,*,#58,.T.);
#71=ORIENTED_EDGE('',*,*,#59,.F.);
#72=ORIENTED_EDGE('',*,*,#60,.T.);
#73=ORIENTED_EDGE('',*,*,#61,.T.);
#74=ORIENTED_EDGE('',*,*,#62,.T.);
#75=ORIENTED_EDGE('',*,*,#60,.F.);
#76=ORIENTED_EDGE('',*,*,#63,.F.);
#77=ORIENTED_EDGE('',*,*,#64,.F.);
#78=ORIENTED_EDGE('',*,*,#65,.T.);
#79=ORIENTED_EDGE('',*,*,#61,.F.);
#80=ORIENTED_EDGE('',*,*,#64,.T.);
#81=ORIENTED_EDGE('',*,*,#66,.T.);
#82=ORIENTED_EDGE('',*,*,#65,.F.);
#83=ORIENTED_EDGE('',*,*,#67,.F.);
#84=ORIENTED_EDGE('',*,*,#68,.T.);
#85=ORIENTED_EDGE('',*,*,#62,.F.);
#86=ORIENTED_EDGE('',*,*,#69,.T.);
#87=ORIENTED_EDGE('',*,*,#67,.T.);
#88=ORIENTED_EDGE('',*,*,#66,.F.);
#89=ORIENTED_EDGE('',*,*,#63,.T.);
#90=ORIENTED_EDGE('',*,*,#59,.T.);
#91=ORIENTED_EDGE('',*,*,#58,.F.);
#92=ORIENTED_EDGE('',*,*,#68,.F.);
#93=ORIENTED_EDGE('',*,*,#69,.F.);
#94=PLANE('',#119);
#95=PLANE('',#121);
#96=PLANE('',#122);
#97=PLANE('',#123);
#98=PLANE('',#124);
#99=ADVANCED_FACE('',(#17),#94,.T.);
#100=ADVANCED_FACE('',(#18),#95,.F.);
#101=ADVANCED_FACE('',(#19),#96,.T.);
#102=ADVANCED_FACE('',(#20),#97,.F.);
#103=ADVANCED_FACE('',(#21),#98,.T.);
#104=ADVANCED_FACE('',(#22),#15,.F.);
#105=CLOSED_SHELL('',(#99,#100,#101,#102,#103,#104));
#106=DERIVED_UNIT_ELEMENT(#108,1.);
#107=DERIVED_UNIT_ELEMENT(#187,-3.);
#108=(
MASS_UNIT()
NAMED_UNIT(*)
SI_UNIT(.KILO.,.GRAM.)
);
#109=DERIVED_UNIT((#106,#107));
#110=MEASURE_REPRESENTATION_ITEM('density measure',
POSITIVE_RATIO_MEASURE(7850.),#109);
#111=PROPERTY_DEFINITION_REPRESENTATION(#116,#113);
#112=PROPERTY_DEFINITION_REPRESENTATION(#117,#114);
#113=REPRESENTATION('material name',(#115),#184);
#114=REPRESENTATION('density',(#110),#184);
#115=DESCRIPTIVE_REPRESENTATION_ITEM('Steel','Steel');
#116=PROPERTY_DEFINITION('material property','material name',#194);
#117=PROPERTY_DEFINITION('material property','density of part',#194);
#118=AXIS2_PLACEMENT_3D('',#155,#127,#128);
#119=AXIS2_PLACEMENT_3D('',#156,#129,#130);
#120=AXIS2_PLACEMENT_3D('',#159,#131,#132);
#121=AXIS2_PLACEMENT_3D('',#167,#137,#138);
#122=AXIS2_PLACEMENT_3D('',#171,#141,#142);
#123=AXIS2_PLACEMENT_3D('',#175,#145,#146);
#124=AXIS2_PLACEMENT_3D('',#179,#149,#150);
#125=AXIS2_PLACEMENT_3D('',#180,#151,#152);
#126=AXIS2_PLACEMENT_3D('',#181,#153,#154);
#127=DIRECTION('axis',(0.,0.,1.));
#128=DIRECTION('refdir',(1.,0.,0.));
#129=DIRECTION('center_axis',(0.0868241797439408,0.996194698091204,0.00759508438186262));
#130=DIRECTION('ref_axis',(0.08715565218303,-1.03911202922789E-6,-0.996194706014578));
#131=DIRECTION('center_axis',(-0.0868241797439408,-0.996194698091204,-0.00759508438186262));
#132=DIRECTION('ref_axis',(0.08715565218303,-1.03911202923179E-6,-0.996194706014578));
#133=DIRECTION('',(-0.992403876506104,0.0871557427476584,-0.0868240888334651));
#134=DIRECTION('',(0.08715565218303,-1.03911202922789E-6,-0.996194706014578));
#135=DIRECTION('',(-0.992403876506104,0.0871557427476584,-0.0868240888334651));
#136=DIRECTION('',(-0.0871556521830228,1.03911202859758E-6,0.996194706014578));
#137=DIRECTION('center_axis',(-0.992403876506104,0.0871557427476579,-0.0868240888334651));
#138=DIRECTION('ref_axis',(-0.0871557427476581,0.,0.996194698091746));
#139=DIRECTION('',(-0.0788851179828586,0.0907379401583297,0.992745568802326));
#140=DIRECTION('',(-0.0868241797439403,-0.996194698091204,-0.00759508438186292));
#141=DIRECTION('center_axis',(0.08715565218303,-1.03911202888596E-6,-0.996194706014578));
#142=DIRECTION('ref_axis',(-0.0868241797439408,-0.996194698091204,-0.00759508438186296));
#143=DIRECTION('',(0.0868241797439416,0.996194698091204,0.00759508438186303));
#144=DIRECTION('',(-0.992403876506104,0.0871557427476584,-0.0868240888334651));
#145=DIRECTION('center_axis',(0.992403876506105,-0.0871557427476592,0.0868240888334579));
#146=DIRECTION('ref_axis',(0.0788851179828513,-0.0907379401583291,-0.992745568802327));
#147=DIRECTION('',(0.0788851179828513,-0.0907379401583291,-0.992745568802327));
#148=DIRECTION('',(0.094401716385286,0.992053679355068,-0.0831733925097732));
#149=DIRECTION('center_axis',(-0.0944017163852858,-0.992053679355068,0.0831733925097726));
#150=DIRECTION('ref_axis',(-0.0788851179828585,0.0907379401583297,0.992745568802326));
#151=DIRECTION('center_axis',(0.0944017163852858,0.992053679355068,-0.0831733925097726));
#152=DIRECTION('ref_axis',(0.992403876506104,-0.0871557427476585,0.0868240888334651));
#153=DIRECTION('center_axis',(0.094401716385286,0.992053679355068,-0.0831733925097732));
#154=DIRECTION('ref_axis',(0.992403876506104,-0.0871557427476585,0.0868240888334651));
#155=CARTESIAN_POINT('',(0.,0.,0.));
#156=CARTESIAN_POINT('Origin',(9.92358303694752,-3.31402308891438,16.2054028725103));
#157=CARTESIAN_POINT('',(9.6155872032653,-3.28604482530209,16.0565813201048));
#158=CARTESIAN_POINT('',(9.69962970800538,-3.2943548679543,16.185809495069));
#159=CARTESIAN_POINT('Origin',(9.57624168017038,-3.2835185789527,16.1750144414186));
#160=CARTESIAN_POINT('',(9.7251022616463,-3.29659194036485,16.1880380547436));
#161=CARTESIAN_POINT('',(9.92358303694752,-3.31402308891438,16.2054028725103));
#162=CARTESIAN_POINT('',(9.91568203646613,-3.29659421254952,14.0096989798404));
#163=CARTESIAN_POINT('',(9.77274720989678,-3.29659250841107,15.6434532340622));
#164=CARTESIAN_POINT('',(9.79558526778258,-3.28604697132646,13.9991918740545));
#165=CARTESIAN_POINT('',(10.1141628117674,-3.31402536109905,14.0270637976071));
#166=CARTESIAN_POINT('',(9.61025245409511,-3.28604476169861,16.1175578459886));
#167=CARTESIAN_POINT('Origin',(9.81170974004349,-3.39621254775081,15.0981089049313));
#168=CARTESIAN_POINT('',(9.89831720025858,-3.49583315513676,14.0081799629414));
#169=CARTESIAN_POINT('',(9.85501346970259,-3.44602285615646,14.5531444343314));
#170=CARTESIAN_POINT('',(9.91134082741425,-3.34640394819628,14.0093192256156));
#171=CARTESIAN_POINT('Origin',(10.1141628117674,-3.31402536109905,14.0270637976071));
#172=CARTESIAN_POINT('',(9.77822043157503,-3.4852859139137,13.9976728571555));
#173=CARTESIAN_POINT('',(9.79510718651327,-3.29153233297511,13.9991500531286));
#174=CARTESIAN_POINT('',(10.0967979755598,-3.51326430368629,14.0255447807081));
#175=CARTESIAN_POINT('Origin',(9.61454325268884,-3.29701554755274,16.0575011011679));
#176=CARTESIAN_POINT('',(9.61454325268884,-3.29701554755274,16.0575011011679));
#177=CARTESIAN_POINT('',(9.69638184213193,-3.39115073073322,15.0275869791617));
#178=CARTESIAN_POINT('',(9.61454325268884,-3.29701554755274,16.0575011011679));
#179=CARTESIAN_POINT('Origin',(10.0967979755598,-3.51326430368629,14.0255447807081));
#180=CARTESIAN_POINT('Origin',(9.57624168017038,-3.2835185789527,16.1750144414186));
#181=CARTESIAN_POINT('Origin',(9.57624168017038,-3.2835185789527,16.1750144414186));
#182=UNCERTAINTY_MEASURE_WITH_UNIT(LENGTH_MEASURE(0.001),#186,
'DISTANCE_ACCURACY_VALUE',
'Maximum model space distance between geometric entities at asserted c
onnectivities');
#183=UNCERTAINTY_MEASURE_WITH_UNIT(LENGTH_MEASURE(0.001),#186,
'DISTANCE_ACCURACY_VALUE',
'Maximum model space distance between geometric entities at asserted c
onnectivities');
#184=(
GEOMETRIC_REPRESENTATION_CONTEXT(3)
GLOBAL_UNCERTAINTY_ASSIGNED_CONTEXT((#182))
GLOBAL_UNIT_ASSIGNED_CONTEXT((#186,#188,#189))
REPRESENTATION_CONTEXT('','3D')
);
#185=(
GEOMETRIC_REPRESENTATION_CONTEXT(3)
GLOBAL_UNCERTAINTY_ASSIGNED_CONTEXT((#183))
GLOBAL_UNIT_ASSIGNED_CONTEXT((#186,#188,#189))
REPRESENTATION_CONTEXT('','3D')
);
#186=(
LENGTH_UNIT()
NAMED_UNIT(*)
SI_UNIT(.CENTI.,.METRE.)
);
#187=(
LENGTH_UNIT()
NAMED_UNIT(*)
SI_UNIT($,.METRE.)
);
#188=(
NAMED_UNIT(*)
PLANE_ANGLE_UNIT()
SI_UNIT($,.RADIAN.)
);
#189=(
NAMED_UNIT(*)
SI_UNIT($,.STERADIAN.)
SOLID_ANGLE_UNIT()
);
#190=SHAPE_DEFINITION_REPRESENTATION(#191,#192);
#191=PRODUCT_DEFINITION_SHAPE('',$,#194);
#192=SHAPE_REPRESENTATION('',(#118),#184);
#193=PRODUCT_DEFINITION_CONTEXT('part definition',#198,'design');
#194=PRODUCT_DEFINITION('2026-08-26-00-51-53-560','obroom',#195,#193);
#195=PRODUCT_DEFINITION_FORMATION('',$,#200);
#196=PRODUCT_RELATED_PRODUCT_CATEGORY('obroom','obroom',(#200));
#197=APPLICATION_PROTOCOL_DEFINITION('international standard',
'automotive_design',2009,#198);
#198=APPLICATION_CONTEXT(
'Core Data for Automotive Mechanical Design Process');
#199=PRODUCT_CONTEXT('part definition',#198,'mechanical');
#200=PRODUCT('2026-08-26-00-51-53-560','obroom',$,(#199));
#201=PRESENTATION_STYLE_ASSIGNMENT((#208));
#202=PRESENTATION_STYLE_ASSIGNMENT((#209));
#203=PRESENTATION_STYLE_ASSIGNMENT((#210));
#204=PRESENTATION_STYLE_ASSIGNMENT((#211));
#205=PRESENTATION_STYLE_ASSIGNMENT((#212));
#206=PRESENTATION_STYLE_ASSIGNMENT((#213));
#207=PRESENTATION_STYLE_ASSIGNMENT((#214));
#208=SURFACE_STYLE_USAGE(.BOTH.,#215);
#209=SURFACE_STYLE_USAGE(.BOTH.,#216);
#210=SURFACE_STYLE_USAGE(.BOTH.,#217);
#211=SURFACE_STYLE_USAGE(.BOTH.,#218);
#212=SURFACE_STYLE_USAGE(.BOTH.,#219);
#213=SURFACE_STYLE_USAGE(.BOTH.,#220);
#214=SURFACE_STYLE_USAGE(.BOTH.,#221);
#215=SURFACE_SIDE_STYLE('',(#222));
#216=SURFACE_SIDE_STYLE('',(#223));
#217=SURFACE_SIDE_STYLE('',(#224));
#218=SURFACE_SIDE_STYLE('',(#225));
#219=SURFACE_SIDE_STYLE('',(#226));
#220=SURFACE_SIDE_STYLE('',(#227));
#221=SURFACE_SIDE_STYLE('',(#228));
#222=SURFACE_STYLE_FILL_AREA(#229);
#223=SURFACE_STYLE_FILL_AREA(#230);
#224=SURFACE_STYLE_FILL_AREA(#231);
#225=SURFACE_STYLE_FILL_AREA(#232);
#226=SURFACE_STYLE_FILL_AREA(#233);
#227=SURFACE_STYLE_FILL_AREA(#234);
#228=SURFACE_STYLE_FILL_AREA(#235);
#229=FILL_AREA_STYLE('Steel - Satin',(#236));
#230=FILL_AREA_STYLE('PEEK',(#237));
#231=FILL_AREA_STYLE('Paek (Beige)',(#238));
#232=FILL_AREA_STYLE('Paint - Metallic (Yellow)',(#239));
#233=FILL_AREA_STYLE('Plastic - Translucent Glossy (Blue)',(#240));
#234=FILL_AREA_STYLE('Granite - Black and White',(#241));
#235=FILL_AREA_STYLE('Paint - Metallic (Silver)',(#242));
#236=FILL_AREA_STYLE_COLOUR('Steel - Satin',#243);
#237=FILL_AREA_STYLE_COLOUR('PEEK',#244);
#238=FILL_AREA_STYLE_COLOUR('Paek (Beige)',#245);
#239=FILL_AREA_STYLE_COLOUR('Paint - Metallic (Yellow)',#246);
#240=FILL_AREA_STYLE_COLOUR('Plastic - Translucent Glossy (Blue)',#247);
#241=FILL_AREA_STYLE_COLOUR('Granite - Black and White',#248);
#242=FILL_AREA_STYLE_COLOUR('Paint - Metallic (Silver)',#249);
#243=COLOUR_RGB('Steel - Satin',0.627450980392157,0.627450980392157,0.627450980392157);
#244=COLOUR_RGB('PEEK',0.6,0.509803921568627,0.368627450980392);
#245=COLOUR_RGB('Paek (Beige)',0.898039215686275,0.792156862745098,0.619607843137255);
#246=COLOUR_RGB('Paint - Metallic (Yellow)',0.909803921568627,0.67843137254902,
0.137254901960784);
#247=COLOUR_RGB('Plastic - Translucent Glossy (Blue)',0.188235294117647,
0.231372549019608,0.588235294117647);
#248=COLOUR_RGB('Granite - Black and White',0.,0.,0.);
#249=COLOUR_RGB('Paint - Metallic (Silver)',0.984313725490196,0.980392156862745,
0.96078431372549);
ENDSEC;
END-ISO-10303-21;
