ISO-10303-21;
HEADER;
/* Generated by software containing ST-Developer
 * from STEP Tools, Inc. (www.steptools.com) 
 */

FILE_DESCRIPTION(
/* description */ (''),
/* implementation_level */ '2;1');

FILE_NAME(
/* name */ 'Body91.step',
/* time_stamp */ '2026-09-03T13:29:12+01:00',
/* author */ (''),
/* organization */ (''),
/* preprocessor_version */ 'ST-DEVELOPER v20.1',
/* originating_system */ 'Autodesk Translation Framework v15.8.0.0',
/* authorisation */ '');

FILE_SCHEMA (('AUTOMOTIVE_DESIGN { 1 0 10303 214 3 1 1 }'));
ENDSEC;

DATA;
#10=MECHANICAL_DESIGN_GEOMETRIC_PRESENTATION_REPRESENTATION('',(#13),#185);
#11=SHAPE_REPRESENTATION_RELATIONSHIP('SRR','None',#192,#12);
#12=ADVANCED_BREP_SHAPE_REPRESENTATION('',(#14),#184);
#13=STYLED_ITEM('',(#201),#14);
#14=MANIFOLD_SOLID_BREP('Body91',#105);
#15=PLANE('',#122);
#16=PLANE('',#123);
#17=PLANE('',#124);
#18=PLANE('',#125);
#19=PLANE('',#126);
#20=FACE_OUTER_BOUND('',#26,.T.);
#21=FACE_OUTER_BOUND('',#27,.T.);
#22=FACE_OUTER_BOUND('',#28,.T.);
#23=FACE_OUTER_BOUND('',#29,.T.);
#24=FACE_OUTER_BOUND('',#30,.T.);
#25=FACE_OUTER_BOUND('',#31,.T.);
#26=EDGE_LOOP('',(#74,#75,#76));
#27=EDGE_LOOP('',(#77,#78,#79,#80,#81));
#28=EDGE_LOOP('',(#82,#83,#84,#85,#86));
#29=EDGE_LOOP('',(#87,#88,#89,#90));
#30=EDGE_LOOP('',(#91,#92,#93,#94));
#31=EDGE_LOOP('',(#95,#96,#97));
#32=LINE('',#162,#42);
#33=LINE('',#165,#43);
#34=LINE('',#167,#44);
#35=LINE('',#169,#45);
#36=LINE('',#170,#46);
#37=LINE('',#173,#47);
#38=LINE('',#175,#48);
#39=LINE('',#176,#49);
#40=LINE('',#178,#50);
#41=LINE('',#180,#51);
#42=VECTOR('',#135,1.);
#43=VECTOR('',#138,1.);
#44=VECTOR('',#139,1.);
#45=VECTOR('',#140,1.);
#46=VECTOR('',#141,1.);
#47=VECTOR('',#144,1.);
#48=VECTOR('',#145,1.);
#49=VECTOR('',#146,1.);
#50=VECTOR('',#149,1.);
#51=VECTOR('',#152,1.);
#52=CIRCLE('',#121,0.124332472651556);
#53=ELLIPSE('',#120,0.12485144787718,0.124332472651556);
#54=VERTEX_POINT('',#157);
#55=VERTEX_POINT('',#158);
#56=VERTEX_POINT('',#160);
#57=VERTEX_POINT('',#164);
#58=VERTEX_POINT('',#166);
#59=VERTEX_POINT('',#168);
#60=VERTEX_POINT('',#172);
#61=VERTEX_POINT('',#174);
#62=EDGE_CURVE('',#54,#55,#53,.T.);
#63=EDGE_CURVE('',#56,#54,#52,.T.);
#64=EDGE_CURVE('',#56,#55,#32,.T.);
#65=EDGE_CURVE('',#54,#57,#33,.T.);
#66=EDGE_CURVE('',#58,#57,#34,.T.);
#67=EDGE_CURVE('',#59,#58,#35,.T.);
#68=EDGE_CURVE('',#59,#56,#36,.T.);
#69=EDGE_CURVE('',#55,#60,#37,.T.);
#70=EDGE_CURVE('',#60,#61,#38,.T.);
#71=EDGE_CURVE('',#57,#61,#39,.T.);
#72=EDGE_CURVE('',#60,#59,#40,.T.);
#73=EDGE_CURVE('',#61,#58,#41,.T.);
#74=ORIENTED_EDGE('',*,*,#62,.F.);
#75=ORIENTED_EDGE('',*,*,#63,.F.);
#76=ORIENTED_EDGE('',*,*,#64,.T.);
#77=ORIENTED_EDGE('',*,*,#63,.T.);
#78=ORIENTED_EDGE('',*,*,#65,.T.);
#79=ORIENTED_EDGE('',*,*,#66,.F.);
#80=ORIENTED_EDGE('',*,*,#67,.F.);
#81=ORIENTED_EDGE('',*,*,#68,.T.);
#82=ORIENTED_EDGE('',*,*,#62,.T.);
#83=ORIENTED_EDGE('',*,*,#69,.T.);
#84=ORIENTED_EDGE('',*,*,#70,.T.);
#85=ORIENTED_EDGE('',*,*,#71,.F.);
#86=ORIENTED_EDGE('',*,*,#65,.F.);
#87=ORIENTED_EDGE('',*,*,#72,.F.);
#88=ORIENTED_EDGE('',*,*,#69,.F.);
#89=ORIENTED_EDGE('',*,*,#64,.F.);
#90=ORIENTED_EDGE('',*,*,#68,.F.);
#91=ORIENTED_EDGE('',*,*,#72,.T.);
#92=ORIENTED_EDGE('',*,*,#67,.T.);
#93=ORIENTED_EDGE('',*,*,#73,.F.);
#94=ORIENTED_EDGE('',*,*,#70,.F.);
#95=ORIENTED_EDGE('',*,*,#71,.T.);
#96=ORIENTED_EDGE('',*,*,#73,.T.);
#97=ORIENTED_EDGE('',*,*,#66,.T.);
#98=CYLINDRICAL_SURFACE('',#119,0.124332472651556);
#99=ADVANCED_FACE('',(#20),#98,.F.);
#100=ADVANCED_FACE('',(#21),#15,.T.);
#101=ADVANCED_FACE('',(#22),#16,.T.);
#102=ADVANCED_FACE('',(#23),#17,.F.);
#103=ADVANCED_FACE('',(#24),#18,.T.);
#104=ADVANCED_FACE('',(#25),#19,.T.);
#105=CLOSED_SHELL('',(#99,#100,#101,#102,#103,#104));
#106=DERIVED_UNIT_ELEMENT(#108,1.);
#107=DERIVED_UNIT_ELEMENT(#187,-3.);
#108=(
MASS_UNIT()
NAMED_UNIT(*)
SI_UNIT(.KILO.,.GRAM.)
);
#109=DERIVED_UNIT((#106,#107));
#110=MEASURE_REPRESENTATION_ITEM('density measure',
POSITIVE_RATIO_MEASURE(7850.),#109);
#111=PROPERTY_DEFINITION_REPRESENTATION(#116,#113);
#112=PROPERTY_DEFINITION_REPRESENTATION(#117,#114);
#113=REPRESENTATION('material name',(#115),#184);
#114=REPRESENTATION('density',(#110),#184);
#115=DESCRIPTIVE_REPRESENTATION_ITEM('Steel','Steel');
#116=PROPERTY_DEFINITION('material property','material name',#194);
#117=PROPERTY_DEFINITION('material property','density of part',#194);
#118=AXIS2_PLACEMENT_3D('',#155,#127,#128);
#119=AXIS2_PLACEMENT_3D('',#156,#129,#130);
#120=AXIS2_PLACEMENT_3D('',#159,#131,#132);
#121=AXIS2_PLACEMENT_3D('',#161,#133,#134);
#122=AXIS2_PLACEMENT_3D('',#163,#136,#137);
#123=AXIS2_PLACEMENT_3D('',#171,#142,#143);
#124=AXIS2_PLACEMENT_3D('',#177,#147,#148);
#125=AXIS2_PLACEMENT_3D('',#179,#150,#151);
#126=AXIS2_PLACEMENT_3D('',#181,#153,#154);
#127=DIRECTION('axis',(0.,0.,1.));
#128=DIRECTION('refdir',(1.,0.,0.));
#129=DIRECTION('center_axis',(0.0858348739280408,0.992053679355068,-0.0919884324022869));
#130=DIRECTION('ref_axis',(0.996140076104376,-0.0871557427476586,-0.0104319358161654));
#131=DIRECTION('center_axis',(-0.087150953020015,-0.996194698091204,0.000913719146619598));
#132=DIRECTION('ref_axis',(-0.0104718750217781,-1.03911202923179E-6,-0.999945168412973));
#133=DIRECTION('center_axis',(0.0858348739280407,0.992053679355068,-0.0919884324022863));
#134=DIRECTION('ref_axis',(0.996140076104376,-0.0871557427476586,-0.0104319358161654));
#135=DIRECTION('',(0.0858348739280408,0.992053679355068,-0.0919884324022869));
#136=DIRECTION('center_axis',(-0.0858348739280407,-0.992053679355068,0.0919884324022863));
#137=DIRECTION('ref_axis',(0.0183663604594368,0.0907379401583297,0.995705429843233));
#138=DIRECTION('',(-0.996140076104376,0.0871557427476584,0.0104319358161654));
#139=DIRECTION('',(0.0183663604594368,0.0907379401583297,0.995705429843233));
#140=DIRECTION('',(-0.996140076104376,0.0871557427476584,0.0104319358161654));
#141=DIRECTION('',(0.0183663604594312,0.0907379401583302,0.995705429843233));
#142=DIRECTION('center_axis',(0.087150953020015,0.996194698091204,-0.000913719146619598));
#143=DIRECTION('ref_axis',(-0.0104718750217781,-1.03911202922789E-6,-0.999945168412973));
#144=DIRECTION('',(-0.0104718750217725,-1.03911202972093E-6,-0.999945168412973));
#145=DIRECTION('',(-0.996140076104376,0.0871557427476584,0.0104319358161654));
#146=DIRECTION('',(-0.0104718750217781,-1.03911202922789E-6,-0.999945168412973));
#147=DIRECTION('center_axis',(-0.996140076104376,0.087155742747658,0.0104319358161598));
#148=DIRECTION('ref_axis',(0.0183663604594312,0.0907379401583302,0.995705429843233));
#149=DIRECTION('',(-0.0871509530200146,-0.996194698091204,0.000913719146619251));
#150=DIRECTION('center_axis',(-0.0104718750217781,-1.03911202888596E-6,
-0.999945168412973));
#151=DIRECTION('ref_axis',(-0.087150953020015,-0.996194698091204,0.000913719146619255));
#152=DIRECTION('',(-0.087150953020015,-0.996194698091204,0.000913719146619255));
#153=DIRECTION('center_axis',(-0.996140076104376,0.0871557427476584,0.0104319358161654));
#154=DIRECTION('ref_axis',(-0.0104717841162458,0.,-0.999945169365512));
#155=CARTESIAN_POINT('',(0.,0.,0.));
#156=CARTESIAN_POINT('Origin',(9.61777878693905,-3.31889119649495,16.1847927352575));
#157=CARTESIAN_POINT('',(9.49392622816968,-3.30805490749335,16.1860897636321));
#158=CARTESIAN_POINT('',(9.58763527674069,-3.31636520246615,16.0636901156349));
#159=CARTESIAN_POINT('Origin',(9.61777878693905,-3.31889119649495,16.1847927352575));
#160=CARTESIAN_POINT('',(9.58668606342605,-3.3273359247168,16.0647073786754));
#161=CARTESIAN_POINT('Origin',(9.61777878693905,-3.31889119649495,16.1847927352575));
#162=CARTESIAN_POINT('',(9.58668606342605,-3.3273359247168,16.0647073786754));
#163=CARTESIAN_POINT('Origin',(9.92609919290718,-3.54863692122854,13.9947842406967));
#164=CARTESIAN_POINT('',(9.46835777552339,-3.3058178350828,16.1863575256299));
#165=CARTESIAN_POINT('',(9.96642781357558,-3.34939570645663,16.1811415577218));
#166=CARTESIAN_POINT('',(9.42802915485499,-3.50505904985471,14.0000002086048));
#167=CARTESIAN_POINT('',(9.46835777552339,-3.3058178350828,16.1863575256299));
#168=CARTESIAN_POINT('',(9.54857806354881,-3.51560629107777,13.9987377772376));
#169=CARTESIAN_POINT('',(9.92609919290718,-3.54863692122854,13.9947842406967));
#170=CARTESIAN_POINT('',(9.54857806354881,-3.51560629107777,13.9987377772376));
#171=CARTESIAN_POINT('Origin',(9.96642781357558,-3.34939570645663,16.1811415577218));
#172=CARTESIAN_POINT('',(9.56600825441256,-3.31636734849053,13.9985550334056));
#173=CARTESIAN_POINT('',(9.57745746931488,-3.31636621239819,15.0918250638341));
#174=CARTESIAN_POINT('',(9.44545934571874,-3.30582010726747,13.9998174647728));
#175=CARTESIAN_POINT('',(9.94352938377092,-3.3493979786413,13.9946014968647));
#176=CARTESIAN_POINT('',(9.44545934571874,-3.30582010726747,13.9998174647728));
#177=CARTESIAN_POINT('Origin',(9.54857806354881,-3.51560629107777,13.9987377772376));
#178=CARTESIAN_POINT('',(9.55729315898068,-3.41598681978415,13.9986464053216));
#179=CARTESIAN_POINT('Origin',(9.94352938377092,-3.3493979786413,13.9946014968647));
#180=CARTESIAN_POINT('',(9.44545934571874,-3.30582010726747,13.9998174647728));
#181=CARTESIAN_POINT('Origin',(9.4481934640969,-3.40543844246876,15.093178762815));
#182=UNCERTAINTY_MEASURE_WITH_UNIT(LENGTH_MEASURE(0.001),#186,
'DISTANCE_ACCURACY_VALUE',
'Maximum model space distance between geometric entities at asserted c
onnectivities');
#183=UNCERTAINTY_MEASURE_WITH_UNIT(LENGTH_MEASURE(0.001),#186,
'DISTANCE_ACCURACY_VALUE',
'Maximum model space distance between geometric entities at asserted c
onnectivities');
#184=(
GEOMETRIC_REPRESENTATION_CONTEXT(3)
GLOBAL_UNCERTAINTY_ASSIGNED_CONTEXT((#182))
GLOBAL_UNIT_ASSIGNED_CONTEXT((#186,#188,#189))
REPRESENTATION_CONTEXT('','3D')
);
#185=(
GEOMETRIC_REPRESENTATION_CONTEXT(3)
GLOBAL_UNCERTAINTY_ASSIGNED_CONTEXT((#183))
GLOBAL_UNIT_ASSIGNED_CONTEXT((#186,#188,#189))
REPRESENTATION_CONTEXT('','3D')
);
#186=(
LENGTH_UNIT()
NAMED_UNIT(*)
SI_UNIT(.CENTI.,.METRE.)
);
#187=(
LENGTH_UNIT()
NAMED_UNIT(*)
SI_UNIT($,.METRE.)
);
#188=(
NAMED_UNIT(*)
PLANE_ANGLE_UNIT()
SI_UNIT($,.RADIAN.)
);
#189=(
NAMED_UNIT(*)
SI_UNIT($,.STERADIAN.)
SOLID_ANGLE_UNIT()
);
#190=SHAPE_DEFINITION_REPRESENTATION(#191,#192);
#191=PRODUCT_DEFINITION_SHAPE('',$,#194);
#192=SHAPE_REPRESENTATION('',(#118),#184);
#193=PRODUCT_DEFINITION_CONTEXT('part definition',#198,'design');
#194=PRODUCT_DEFINITION('2026-08-26-00-51-53-560','obroom',#195,#193);
#195=PRODUCT_DEFINITION_FORMATION('',$,#200);
#196=PRODUCT_RELATED_PRODUCT_CATEGORY('obroom','obroom',(#200));
#197=APPLICATION_PROTOCOL_DEFINITION('international standard',
'automotive_design',2009,#198);
#198=APPLICATION_CONTEXT(
'Core Data for Automotive Mechanical Design Process');
#199=PRODUCT_CONTEXT('part definition',#198,'mechanical');
#200=PRODUCT('2026-08-26-00-51-53-560','obroom',$,(#199));
#201=PRESENTATION_STYLE_ASSIGNMENT((#208));
#202=PRESENTATION_STYLE_ASSIGNMENT((#209));
#203=PRESENTATION_STYLE_ASSIGNMENT((#210));
#204=PRESENTATION_STYLE_ASSIGNMENT((#211));
#205=PRESENTATION_STYLE_ASSIGNMENT((#212));
#206=PRESENTATION_STYLE_ASSIGNMENT((#213));
#207=PRESENTATION_STYLE_ASSIGNMENT((#214));
#208=SURFACE_STYLE_USAGE(.BOTH.,#215);
#209=SURFACE_STYLE_USAGE(.BOTH.,#216);
#210=SURFACE_STYLE_USAGE(.BOTH.,#217);
#211=SURFACE_STYLE_USAGE(.BOTH.,#218);
#212=SURFACE_STYLE_USAGE(.BOTH.,#219);
#213=SURFACE_STYLE_USAGE(.BOTH.,#220);
#214=SURFACE_STYLE_USAGE(.BOTH.,#221);
#215=SURFACE_SIDE_STYLE('',(#222));
#216=SURFACE_SIDE_STYLE('',(#223));
#217=SURFACE_SIDE_STYLE('',(#224));
#218=SURFACE_SIDE_STYLE('',(#225));
#219=SURFACE_SIDE_STYLE('',(#226));
#220=SURFACE_SIDE_STYLE('',(#227));
#221=SURFACE_SIDE_STYLE('',(#228));
#222=SURFACE_STYLE_FILL_AREA(#229);
#223=SURFACE_STYLE_FILL_AREA(#230);
#224=SURFACE_STYLE_FILL_AREA(#231);
#225=SURFACE_STYLE_FILL_AREA(#232);
#226=SURFACE_STYLE_FILL_AREA(#233);
#227=SURFACE_STYLE_FILL_AREA(#234);
#228=SURFACE_STYLE_FILL_AREA(#235);
#229=FILL_AREA_STYLE('Steel - Satin',(#236));
#230=FILL_AREA_STYLE('PEEK',(#237));
#231=FILL_AREA_STYLE('Paek (Beige)',(#238));
#232=FILL_AREA_STYLE('Paint - Metallic (Yellow)',(#239));
#233=FILL_AREA_STYLE('Plastic - Translucent Glossy (Blue)',(#240));
#234=FILL_AREA_STYLE('Granite - Black and White',(#241));
#235=FILL_AREA_STYLE('Paint - Metallic (Silver)',(#242));
#236=FILL_AREA_STYLE_COLOUR('Steel - Satin',#243);
#237=FILL_AREA_STYLE_COLOUR('PEEK',#244);
#238=FILL_AREA_STYLE_COLOUR('Paek (Beige)',#245);
#239=FILL_AREA_STYLE_COLOUR('Paint - Metallic (Yellow)',#246);
#240=FILL_AREA_STYLE_COLOUR('Plastic - Translucent Glossy (Blue)',#247);
#241=FILL_AREA_STYLE_COLOUR('Granite - Black and White',#248);
#242=FILL_AREA_STYLE_COLOUR('Paint - Metallic (Silver)',#249);
#243=COLOUR_RGB('Steel - Satin',0.627450980392157,0.627450980392157,0.627450980392157);
#244=COLOUR_RGB('PEEK',0.6,0.509803921568627,0.368627450980392);
#245=COLOUR_RGB('Paek (Beige)',0.898039215686275,0.792156862745098,0.619607843137255);
#246=COLOUR_RGB('Paint - Metallic (Yellow)',0.909803921568627,0.67843137254902,
0.137254901960784);
#247=COLOUR_RGB('Plastic - Translucent Glossy (Blue)',0.188235294117647,
0.231372549019608,0.588235294117647);
#248=COLOUR_RGB('Granite - Black and White',0.,0.,0.);
#249=COLOUR_RGB('Paint - Metallic (Silver)',0.984313725490196,0.980392156862745,
0.96078431372549);
ENDSEC;
END-ISO-10303-21;
