ISO-10303-21;
HEADER;
/* Generated by software containing ST-Developer
 * from STEP Tools, Inc. (www.steptools.com) 
 */

FILE_DESCRIPTION(
/* description */ (''),
/* implementation_level */ '2;1');

FILE_NAME(
/* name */ 'Body83.step',
/* time_stamp */ '2026-09-03T13:29:07+01:00',
/* author */ (''),
/* organization */ (''),
/* preprocessor_version */ 'ST-DEVELOPER v20.1',
/* originating_system */ 'Autodesk Translation Framework v15.8.0.0',
/* authorisation */ '');

FILE_SCHEMA (('AUTOMOTIVE_DESIGN { 1 0 10303 214 3 1 1 }'));
ENDSEC;

DATA;
#10=MECHANICAL_DESIGN_GEOMETRIC_PRESENTATION_REPRESENTATION('',(#13),#374);
#11=SHAPE_REPRESENTATION_RELATIONSHIP('SRR','None',#381,#12);
#12=ADVANCED_BREP_SHAPE_REPRESENTATION('',(#14),#373);
#13=STYLED_ITEM('',(#392),#14);
#14=MANIFOLD_SOLID_BREP('Body83',#195);
#15=(
BOUNDED_SURFACE()
B_SPLINE_SURFACE(5,1,((#321,#322),(#323,#324),(#325,#326),(#327,#328),(#329,
#330),(#331,#332),(#333,#334),(#335,#336),(#337,#338),(#339,#340),(#341,
#342),(#343,#344),(#345,#346),(#347,#348),(#349,#350)),.UNSPECIFIED.,.F.,
 .F.,.F.)
B_SPLINE_SURFACE_WITH_KNOTS((6,1,1,1,1,1,1,1,1,1,6),(2,2),(0.0769230620222985,
0.1,0.2,0.3,0.4,0.5,0.6,0.7,0.8,0.9,0.923076890695306),(0.,0.5),
 .UNSPECIFIED.)
GEOMETRIC_REPRESENTATION_ITEM()
RATIONAL_B_SPLINE_SURFACE(((1.,1.),(1.,1.),(1.,1.),(1.,1.),(1.,1.),(1.,
1.),(1.,1.),(1.,1.),(1.,1.),(1.,1.),(1.,1.),(1.,1.),(1.,1.),(1.,1.),(1.,
1.)))
REPRESENTATION_ITEM('')
SURFACE()
);
#16=FACE_OUTER_BOUND('',#26,.T.);
#17=FACE_OUTER_BOUND('',#27,.T.);
#18=FACE_OUTER_BOUND('',#28,.T.);
#19=FACE_OUTER_BOUND('',#29,.T.);
#20=FACE_OUTER_BOUND('',#30,.T.);
#21=FACE_OUTER_BOUND('',#31,.T.);
#22=FACE_OUTER_BOUND('',#32,.T.);
#23=FACE_OUTER_BOUND('',#33,.T.);
#24=FACE_OUTER_BOUND('',#34,.T.);
#25=FACE_OUTER_BOUND('',#35,.T.);
#26=EDGE_LOOP('',(#126,#127,#128,#129,#130,#131,#132,#133));
#27=EDGE_LOOP('',(#134,#135,#136,#137));
#28=EDGE_LOOP('',(#138,#139,#140,#141));
#29=EDGE_LOOP('',(#142,#143,#144,#145));
#30=EDGE_LOOP('',(#146,#147,#148,#149));
#31=EDGE_LOOP('',(#150,#151,#152,#153,#154));
#32=EDGE_LOOP('',(#155,#156,#157,#158,#159));
#33=EDGE_LOOP('',(#160,#161,#162,#163));
#34=EDGE_LOOP('',(#164,#165,#166,#167));
#35=EDGE_LOOP('',(#168,#169,#170,#171,#172,#173,#174,#175));
#36=(
BOUNDED_CURVE()
B_SPLINE_CURVE(5,(#267,#268,#269,#270,#271,#272,#273,#274,#275,#276,#277,
#278,#279,#280,#281),.UNSPECIFIED.,.F.,.F.)
B_SPLINE_CURVE_WITH_KNOTS((6,1,1,1,1,1,1,1,1,1,6),(0.0769230620222985,0.1,
0.2,0.3,0.4,0.5,0.6,0.7,0.8,0.9,0.923076890695306),.UNSPECIFIED.)
CURVE()
GEOMETRIC_REPRESENTATION_ITEM()
RATIONAL_B_SPLINE_CURVE((1.,1.,1.,1.,1.,1.,1.,1.,1.,1.,1.,1.,1.,1.,1.))
REPRESENTATION_ITEM('')
);
#37=(
BOUNDED_CURVE()
B_SPLINE_CURVE(5,(#352,#353,#354,#355,#356,#357,#358,#359,#360,#361,#362,
#363,#364,#365,#366),.UNSPECIFIED.,.F.,.F.)
B_SPLINE_CURVE_WITH_KNOTS((6,1,1,1,1,1,1,1,1,1,6),(0.0769230620222985,0.1,
0.2,0.3,0.4,0.5,0.6,0.7,0.8,0.9,0.923076890695306),.UNSPECIFIED.)
CURVE()
GEOMETRIC_REPRESENTATION_ITEM()
RATIONAL_B_SPLINE_CURVE((1.,1.,1.,1.,1.,1.,1.,1.,1.,1.,1.,1.,1.,1.,1.))
REPRESENTATION_ITEM('')
);
#38=LINE('',#265,#61);
#39=LINE('',#283,#62);
#40=LINE('',#285,#63);
#41=LINE('',#287,#64);
#42=LINE('',#289,#65);
#43=LINE('',#291,#66);
#44=LINE('',#292,#67);
#45=LINE('',#296,#68);
#46=LINE('',#297,#69);
#47=LINE('',#298,#70);
#48=LINE('',#301,#71);
#49=LINE('',#302,#72);
#50=LINE('',#305,#73);
#51=LINE('',#306,#74);
#52=LINE('',#309,#75);
#53=LINE('',#310,#76);
#54=LINE('',#313,#77);
#55=LINE('',#315,#78);
#56=LINE('',#316,#79);
#57=LINE('',#319,#80);
#58=LINE('',#320,#81);
#59=LINE('',#367,#82);
#60=LINE('',#369,#83);
#61=VECTOR('',#222,1.);
#62=VECTOR('',#223,1.);
#63=VECTOR('',#224,1.);
#64=VECTOR('',#225,1.);
#65=VECTOR('',#226,1.);
#66=VECTOR('',#227,1.);
#67=VECTOR('',#228,1.);
#68=VECTOR('',#231,1.);
#69=VECTOR('',#232,1.);
#70=VECTOR('',#233,1.);
#71=VECTOR('',#236,1.);
#72=VECTOR('',#237,1.);
#73=VECTOR('',#240,1.);
#74=VECTOR('',#241,1.);
#75=VECTOR('',#244,1.);
#76=VECTOR('',#245,1.);
#77=VECTOR('',#248,1.);
#78=VECTOR('',#249,1.);
#79=VECTOR('',#250,1.);
#80=VECTOR('',#253,1.);
#81=VECTOR('',#254,1.);
#82=VECTOR('',#255,1.);
#83=VECTOR('',#258,1.);
#84=VERTEX_POINT('',#263);
#85=VERTEX_POINT('',#264);
#86=VERTEX_POINT('',#266);
#87=VERTEX_POINT('',#282);
#88=VERTEX_POINT('',#284);
#89=VERTEX_POINT('',#286);
#90=VERTEX_POINT('',#288);
#91=VERTEX_POINT('',#290);
#92=VERTEX_POINT('',#294);
#93=VERTEX_POINT('',#295);
#94=VERTEX_POINT('',#300);
#95=VERTEX_POINT('',#304);
#96=VERTEX_POINT('',#308);
#97=VERTEX_POINT('',#312);
#98=VERTEX_POINT('',#314);
#99=VERTEX_POINT('',#318);
#100=VERTEX_POINT('',#351);
#101=EDGE_CURVE('',#84,#85,#38,.T.);
#102=EDGE_CURVE('',#85,#86,#36,.T.);
#103=EDGE_CURVE('',#86,#87,#39,.T.);
#104=EDGE_CURVE('',#87,#88,#40,.T.);
#105=EDGE_CURVE('',#88,#89,#41,.T.);
#106=EDGE_CURVE('',#89,#90,#42,.T.);
#107=EDGE_CURVE('',#90,#91,#43,.T.);
#108=EDGE_CURVE('',#91,#84,#44,.T.);
#109=EDGE_CURVE('',#92,#93,#45,.T.);
#110=EDGE_CURVE('',#92,#84,#46,.T.);
#111=EDGE_CURVE('',#93,#91,#47,.T.);
#112=EDGE_CURVE('',#93,#94,#48,.T.);
#113=EDGE_CURVE('',#94,#90,#49,.T.);
#114=EDGE_CURVE('',#94,#95,#50,.T.);
#115=EDGE_CURVE('',#95,#89,#51,.T.);
#116=EDGE_CURVE('',#95,#96,#52,.T.);
#117=EDGE_CURVE('',#96,#88,#53,.T.);
#118=EDGE_CURVE('',#96,#97,#54,.T.);
#119=EDGE_CURVE('',#98,#87,#55,.T.);
#120=EDGE_CURVE('',#97,#98,#56,.T.);
#121=EDGE_CURVE('',#97,#99,#57,.T.);
#122=EDGE_CURVE('',#99,#86,#58,.T.);
#123=EDGE_CURVE('',#100,#99,#37,.T.);
#124=EDGE_CURVE('',#100,#85,#59,.T.);
#125=EDGE_CURVE('',#92,#100,#60,.T.);
#126=ORIENTED_EDGE('',*,*,#101,.T.);
#127=ORIENTED_EDGE('',*,*,#102,.T.);
#128=ORIENTED_EDGE('',*,*,#103,.T.);
#129=ORIENTED_EDGE('',*,*,#104,.T.);
#130=ORIENTED_EDGE('',*,*,#105,.T.);
#131=ORIENTED_EDGE('',*,*,#106,.T.);
#132=ORIENTED_EDGE('',*,*,#107,.T.);
#133=ORIENTED_EDGE('',*,*,#108,.T.);
#134=ORIENTED_EDGE('',*,*,#109,.F.);
#135=ORIENTED_EDGE('',*,*,#110,.T.);
#136=ORIENTED_EDGE('',*,*,#108,.F.);
#137=ORIENTED_EDGE('',*,*,#111,.F.);
#138=ORIENTED_EDGE('',*,*,#112,.F.);
#139=ORIENTED_EDGE('',*,*,#111,.T.);
#140=ORIENTED_EDGE('',*,*,#107,.F.);
#141=ORIENTED_EDGE('',*,*,#113,.F.);
#142=ORIENTED_EDGE('',*,*,#114,.F.);
#143=ORIENTED_EDGE('',*,*,#113,.T.);
#144=ORIENTED_EDGE('',*,*,#106,.F.);
#145=ORIENTED_EDGE('',*,*,#115,.F.);
#146=ORIENTED_EDGE('',*,*,#116,.F.);
#147=ORIENTED_EDGE('',*,*,#115,.T.);
#148=ORIENTED_EDGE('',*,*,#105,.F.);
#149=ORIENTED_EDGE('',*,*,#117,.F.);
#150=ORIENTED_EDGE('',*,*,#118,.F.);
#151=ORIENTED_EDGE('',*,*,#117,.T.);
#152=ORIENTED_EDGE('',*,*,#104,.F.);
#153=ORIENTED_EDGE('',*,*,#119,.F.);
#154=ORIENTED_EDGE('',*,*,#120,.F.);
#155=ORIENTED_EDGE('',*,*,#121,.F.);
#156=ORIENTED_EDGE('',*,*,#120,.T.);
#157=ORIENTED_EDGE('',*,*,#119,.T.);
#158=ORIENTED_EDGE('',*,*,#103,.F.);
#159=ORIENTED_EDGE('',*,*,#122,.F.);
#160=ORIENTED_EDGE('',*,*,#123,.T.);
#161=ORIENTED_EDGE('',*,*,#122,.T.);
#162=ORIENTED_EDGE('',*,*,#102,.F.);
#163=ORIENTED_EDGE('',*,*,#124,.F.);
#164=ORIENTED_EDGE('',*,*,#125,.T.);
#165=ORIENTED_EDGE('',*,*,#124,.T.);
#166=ORIENTED_EDGE('',*,*,#101,.F.);
#167=ORIENTED_EDGE('',*,*,#110,.F.);
#168=ORIENTED_EDGE('',*,*,#125,.F.);
#169=ORIENTED_EDGE('',*,*,#109,.T.);
#170=ORIENTED_EDGE('',*,*,#112,.T.);
#171=ORIENTED_EDGE('',*,*,#114,.T.);
#172=ORIENTED_EDGE('',*,*,#116,.T.);
#173=ORIENTED_EDGE('',*,*,#118,.T.);
#174=ORIENTED_EDGE('',*,*,#121,.T.);
#175=ORIENTED_EDGE('',*,*,#123,.F.);
#176=PLANE('',#209);
#177=PLANE('',#210);
#178=PLANE('',#211);
#179=PLANE('',#212);
#180=PLANE('',#213);
#181=PLANE('',#214);
#182=PLANE('',#215);
#183=PLANE('',#216);
#184=PLANE('',#217);
#185=ADVANCED_FACE('',(#16),#176,.T.);
#186=ADVANCED_FACE('',(#17),#177,.T.);
#187=ADVANCED_FACE('',(#18),#178,.T.);
#188=ADVANCED_FACE('',(#19),#179,.T.);
#189=ADVANCED_FACE('',(#20),#180,.T.);
#190=ADVANCED_FACE('',(#21),#181,.T.);
#191=ADVANCED_FACE('',(#22),#182,.T.);
#192=ADVANCED_FACE('',(#23),#15,.T.);
#193=ADVANCED_FACE('',(#24),#183,.T.);
#194=ADVANCED_FACE('',(#25),#184,.F.);
#195=CLOSED_SHELL('',(#185,#186,#187,#188,#189,#190,#191,#192,#193,#194));
#196=DERIVED_UNIT_ELEMENT(#198,1.);
#197=DERIVED_UNIT_ELEMENT(#376,-3.);
#198=(
MASS_UNIT()
NAMED_UNIT(*)
SI_UNIT(.KILO.,.GRAM.)
);
#199=DERIVED_UNIT((#196,#197));
#200=MEASURE_REPRESENTATION_ITEM('density measure',
POSITIVE_RATIO_MEASURE(7850.),#199);
#201=PROPERTY_DEFINITION_REPRESENTATION(#206,#203);
#202=PROPERTY_DEFINITION_REPRESENTATION(#207,#204);
#203=REPRESENTATION('material name',(#205),#373);
#204=REPRESENTATION('density',(#200),#373);
#205=DESCRIPTIVE_REPRESENTATION_ITEM('Steel','Steel');
#206=PROPERTY_DEFINITION('material property','material name',#383);
#207=PROPERTY_DEFINITION('material property','density of part',#383);
#208=AXIS2_PLACEMENT_3D('',#261,#218,#219);
#209=AXIS2_PLACEMENT_3D('',#262,#220,#221);
#210=AXIS2_PLACEMENT_3D('',#293,#229,#230);
#211=AXIS2_PLACEMENT_3D('',#299,#234,#235);
#212=AXIS2_PLACEMENT_3D('',#303,#238,#239);
#213=AXIS2_PLACEMENT_3D('',#307,#242,#243);
#214=AXIS2_PLACEMENT_3D('',#311,#246,#247);
#215=AXIS2_PLACEMENT_3D('',#317,#251,#252);
#216=AXIS2_PLACEMENT_3D('',#368,#256,#257);
#217=AXIS2_PLACEMENT_3D('',#370,#259,#260);
#218=DIRECTION('axis',(0.,0.,1.));
#219=DIRECTION('refdir',(1.,0.,0.));
#220=DIRECTION('center_axis',(0.,0.,1.));
#221=DIRECTION('ref_axis',(-1.,0.,0.));
#222=DIRECTION('',(0.,1.,0.));
#223=DIRECTION('',(0.,-1.,0.));
#224=DIRECTION('',(1.,0.,0.));
#225=DIRECTION('',(0.,1.,0.));
#226=DIRECTION('',(-1.,0.,0.));
#227=DIRECTION('',(0.,-1.,0.));
#228=DIRECTION('',(1.,0.,0.));
#229=DIRECTION('center_axis',(0.,-1.,0.));
#230=DIRECTION('ref_axis',(1.,0.,0.));
#231=DIRECTION('',(-1.,0.,0.));
#232=DIRECTION('',(0.,0.,1.));
#233=DIRECTION('',(0.,0.,1.));
#234=DIRECTION('center_axis',(-1.,0.,0.));
#235=DIRECTION('ref_axis',(0.,-1.,0.));
#236=DIRECTION('',(0.,1.,0.));
#237=DIRECTION('',(0.,0.,1.));
#238=DIRECTION('center_axis',(0.,1.,0.));
#239=DIRECTION('ref_axis',(-1.,0.,0.));
#240=DIRECTION('',(1.,0.,0.));
#241=DIRECTION('',(0.,0.,1.));
#242=DIRECTION('center_axis',(1.,0.,0.));
#243=DIRECTION('ref_axis',(0.,1.,0.));
#244=DIRECTION('',(0.,-1.,0.));
#245=DIRECTION('',(0.,0.,1.));
#246=DIRECTION('center_axis',(0.,-1.,0.));
#247=DIRECTION('ref_axis',(1.,0.,0.));
#248=DIRECTION('',(-1.,0.,0.));
#249=DIRECTION('',(0.,0.,1.));
#250=DIRECTION('',(0.,0.,1.));
#251=DIRECTION('center_axis',(-1.,0.,0.));
#252=DIRECTION('ref_axis',(0.,-1.,0.));
#253=DIRECTION('',(0.,1.,0.));
#254=DIRECTION('',(0.,0.,1.));
#255=DIRECTION('',(0.,0.,1.));
#256=DIRECTION('center_axis',(1.,0.,0.));
#257=DIRECTION('ref_axis',(0.,1.,0.));
#258=DIRECTION('',(0.,1.,0.));
#259=DIRECTION('center_axis',(0.,0.,1.));
#260=DIRECTION('ref_axis',(-1.,0.,0.));
#261=CARTESIAN_POINT('',(0.,0.,0.));
#262=CARTESIAN_POINT('Origin',(5.40000017732382,-6.25000059313226,14.));
#263=CARTESIAN_POINT('',(-0.100000016391277,-12.9999999925494,14.));
#264=CARTESIAN_POINT('',(-0.100000016391277,-10.0071449204512,14.));
#265=CARTESIAN_POINT('',(-0.100000016391277,-12.9999999925494,14.));
#266=CARTESIAN_POINT('',(10.899999756366,-10.0071432142915,14.));
#267=CARTESIAN_POINT('Ctrl Pts',(-0.100000016391276,-10.0071449204512,14.));
#268=CARTESIAN_POINT('Ctrl Pts',(-0.0399999776494722,-9.84060002840211,
14.));
#269=CARTESIAN_POINT('Ctrl Pts',(0.280000061091439,-8.96285578175459,14.));
#270=CARTESIAN_POINT('Ctrl Pts',(0.860000099832029,-7.47367482741469,14.));
#271=CARTESIAN_POINT('Ctrl Pts',(1.70000013857338,-5.58847953650545,14.));
#272=CARTESIAN_POINT('Ctrl Pts',(2.80000017731667,-3.66032477059005,14.));
#273=CARTESIAN_POINT('Ctrl Pts',(4.10000017732002,-2.2432214300836,14.));
#274=CARTESIAN_POINT('Ctrl Pts',(5.40000017732395,-1.75805817682524,14.));
#275=CARTESIAN_POINT('Ctrl Pts',(6.70000017732736,-2.24322143009389,14.));
#276=CARTESIAN_POINT('Ctrl Pts',(8.00000017732952,-3.66032477060804,14.));
#277=CARTESIAN_POINT('Ctrl Pts',(9.10000009313767,-5.58847932103824,14.));
#278=CARTESIAN_POINT('Ctrl Pts',(9.94000000894467,-7.47367427563521,14.));
#279=CARTESIAN_POINT('Ctrl Pts',(10.5199999247514,-8.96285483484871,14.));
#280=CARTESIAN_POINT('Ctrl Pts',(10.8399998405584,-9.84059867960414,14.));
#281=CARTESIAN_POINT('Ctrl Pts',(10.899999756366,-10.0071432142915,14.));
#282=CARTESIAN_POINT('',(10.899999756366,-12.9999997094274,14.));
#283=CARTESIAN_POINT('',(10.899999756366,-12.9999997094274,14.));
#284=CARTESIAN_POINT('',(11.9000001773238,-13.0000001937151,14.));
#285=CARTESIAN_POINT('',(11.9000001773238,-13.0000001937151,14.));
#286=CARTESIAN_POINT('',(11.9000001773238,0.500000007450581,14.));
#287=CARTESIAN_POINT('',(11.9000001773238,0.500000007450581,14.));
#288=CARTESIAN_POINT('',(-1.09999982267618,0.500000007450581,14.));
#289=CARTESIAN_POINT('',(-1.09999982267618,0.500000007450581,14.));
#290=CARTESIAN_POINT('',(-1.09999982267618,-13.0000001937151,14.));
#291=CARTESIAN_POINT('',(-1.09999982267618,-13.0000001937151,14.));
#292=CARTESIAN_POINT('',(11.9000001773238,-13.0000001937151,14.));
#293=CARTESIAN_POINT('Origin',(-1.09999982267618,-13.0000001937151,13.5));
#294=CARTESIAN_POINT('',(-0.100000016391277,-12.9999999925494,13.5));
#295=CARTESIAN_POINT('',(-1.09999982267618,-13.0000001937151,13.5));
#296=CARTESIAN_POINT('',(11.9000001773238,-13.0000001937151,13.5));
#297=CARTESIAN_POINT('',(-0.100000016391277,-12.9999999925494,13.5));
#298=CARTESIAN_POINT('',(-1.09999982267618,-13.0000001937151,13.5));
#299=CARTESIAN_POINT('Origin',(-1.09999982267618,0.500000007450581,13.5));
#300=CARTESIAN_POINT('',(-1.09999982267618,0.500000007450581,13.5));
#301=CARTESIAN_POINT('',(-1.09999982267618,-13.0000001937151,13.5));
#302=CARTESIAN_POINT('',(-1.09999982267618,0.500000007450581,13.5));
#303=CARTESIAN_POINT('Origin',(11.9000001773238,0.500000007450581,13.5));
#304=CARTESIAN_POINT('',(11.9000001773238,0.500000007450581,13.5));
#305=CARTESIAN_POINT('',(-1.09999982267618,0.500000007450581,13.5));
#306=CARTESIAN_POINT('',(11.9000001773238,0.500000007450581,13.5));
#307=CARTESIAN_POINT('Origin',(11.9000001773238,-13.0000001937151,13.5));
#308=CARTESIAN_POINT('',(11.9000001773238,-13.0000001937151,13.5));
#309=CARTESIAN_POINT('',(11.9000001773238,0.500000007450581,13.5));
#310=CARTESIAN_POINT('',(11.9000001773238,-13.0000001937151,13.5));
#311=CARTESIAN_POINT('Origin',(10.899999756366,-13.0000001937151,13.5));
#312=CARTESIAN_POINT('',(10.899999756366,-12.9999997094274,13.5));
#313=CARTESIAN_POINT('',(11.9000001773238,-13.0000001937151,13.5));
#314=CARTESIAN_POINT('',(10.899999756366,-12.9999997094274,13.75));
#315=CARTESIAN_POINT('',(10.899999756366,-12.9999997094274,13.75));
#316=CARTESIAN_POINT('',(10.899999756366,-12.9999997094274,13.5));
#317=CARTESIAN_POINT('Origin',(10.899999756366,-10.0071432142915,13.5));
#318=CARTESIAN_POINT('',(10.899999756366,-10.0071432142915,13.5));
#319=CARTESIAN_POINT('',(10.899999756366,-12.9999997094274,13.5));
#320=CARTESIAN_POINT('',(10.899999756366,-10.0071432142915,13.5));
#321=CARTESIAN_POINT('Ctrl Pts',(-0.100000016391276,-10.0071449204512,13.5));
#322=CARTESIAN_POINT('Ctrl Pts',(-0.100000016391276,-10.0071449204512,14.));
#323=CARTESIAN_POINT('Ctrl Pts',(-0.0399999776494721,-9.84060002840211,
13.5));
#324=CARTESIAN_POINT('Ctrl Pts',(-0.0399999776494721,-9.84060002840211,
14.));
#325=CARTESIAN_POINT('Ctrl Pts',(0.280000061091439,-8.96285578175459,13.5));
#326=CARTESIAN_POINT('Ctrl Pts',(0.280000061091439,-8.96285578175459,14.));
#327=CARTESIAN_POINT('Ctrl Pts',(0.860000099832029,-7.47367482741469,13.5));
#328=CARTESIAN_POINT('Ctrl Pts',(0.860000099832029,-7.47367482741469,14.));
#329=CARTESIAN_POINT('Ctrl Pts',(1.70000013857338,-5.58847953650545,13.5));
#330=CARTESIAN_POINT('Ctrl Pts',(1.70000013857338,-5.58847953650545,14.));
#331=CARTESIAN_POINT('Ctrl Pts',(2.80000017731667,-3.66032477059005,13.5));
#332=CARTESIAN_POINT('Ctrl Pts',(2.80000017731667,-3.66032477059005,14.));
#333=CARTESIAN_POINT('Ctrl Pts',(4.10000017732002,-2.2432214300836,13.5));
#334=CARTESIAN_POINT('Ctrl Pts',(4.10000017732002,-2.2432214300836,14.));
#335=CARTESIAN_POINT('Ctrl Pts',(5.40000017732395,-1.75805817682524,13.5));
#336=CARTESIAN_POINT('Ctrl Pts',(5.40000017732395,-1.75805817682524,14.));
#337=CARTESIAN_POINT('Ctrl Pts',(6.70000017732736,-2.24322143009389,13.5));
#338=CARTESIAN_POINT('Ctrl Pts',(6.70000017732736,-2.24322143009389,14.));
#339=CARTESIAN_POINT('Ctrl Pts',(8.00000017732952,-3.66032477060804,13.5));
#340=CARTESIAN_POINT('Ctrl Pts',(8.00000017732952,-3.66032477060804,14.));
#341=CARTESIAN_POINT('Ctrl Pts',(9.10000009313767,-5.58847932103824,13.5));
#342=CARTESIAN_POINT('Ctrl Pts',(9.10000009313767,-5.58847932103824,14.));
#343=CARTESIAN_POINT('Ctrl Pts',(9.94000000894467,-7.47367427563521,13.5));
#344=CARTESIAN_POINT('Ctrl Pts',(9.94000000894467,-7.47367427563521,14.));
#345=CARTESIAN_POINT('Ctrl Pts',(10.5199999247514,-8.96285483484871,13.5));
#346=CARTESIAN_POINT('Ctrl Pts',(10.5199999247514,-8.96285483484871,14.));
#347=CARTESIAN_POINT('Ctrl Pts',(10.8399998405584,-9.84059867960414,13.5));
#348=CARTESIAN_POINT('Ctrl Pts',(10.8399998405584,-9.84059867960414,14.));
#349=CARTESIAN_POINT('Ctrl Pts',(10.899999756366,-10.0071432142915,13.5));
#350=CARTESIAN_POINT('Ctrl Pts',(10.899999756366,-10.0071432142915,14.));
#351=CARTESIAN_POINT('',(-0.100000016391277,-10.0071449204512,13.5));
#352=CARTESIAN_POINT('Ctrl Pts',(-0.100000016391277,-10.0071449204512,13.5));
#353=CARTESIAN_POINT('Ctrl Pts',(-0.0399999776494731,-9.84060002840211,
13.5));
#354=CARTESIAN_POINT('Ctrl Pts',(0.280000061091439,-8.96285578175459,13.5));
#355=CARTESIAN_POINT('Ctrl Pts',(0.860000099832028,-7.47367482741469,13.5));
#356=CARTESIAN_POINT('Ctrl Pts',(1.70000013857338,-5.58847953650545,13.5));
#357=CARTESIAN_POINT('Ctrl Pts',(2.80000017731667,-3.66032477059005,13.5));
#358=CARTESIAN_POINT('Ctrl Pts',(4.10000017732002,-2.2432214300836,13.5));
#359=CARTESIAN_POINT('Ctrl Pts',(5.40000017732395,-1.75805817682524,13.5));
#360=CARTESIAN_POINT('Ctrl Pts',(6.70000017732736,-2.24322143009389,13.5));
#361=CARTESIAN_POINT('Ctrl Pts',(8.00000017732952,-3.66032477060804,13.5));
#362=CARTESIAN_POINT('Ctrl Pts',(9.10000009313767,-5.58847932103824,13.5));
#363=CARTESIAN_POINT('Ctrl Pts',(9.94000000894467,-7.47367427563521,13.5));
#364=CARTESIAN_POINT('Ctrl Pts',(10.5199999247514,-8.96285483484871,13.5));
#365=CARTESIAN_POINT('Ctrl Pts',(10.8399998405584,-9.84059867960414,13.5));
#366=CARTESIAN_POINT('Ctrl Pts',(10.899999756366,-10.0071432142915,13.5));
#367=CARTESIAN_POINT('',(-0.100000016391277,-10.0071449204512,13.5));
#368=CARTESIAN_POINT('Origin',(-0.100000016391277,-12.9999999925494,13.5));
#369=CARTESIAN_POINT('',(-0.100000016391277,-12.9999999925494,13.5));
#370=CARTESIAN_POINT('Origin',(5.40000017732382,-6.25000059313226,13.5));
#371=UNCERTAINTY_MEASURE_WITH_UNIT(LENGTH_MEASURE(0.001),#375,
'DISTANCE_ACCURACY_VALUE',
'Maximum model space distance between geometric entities at asserted c
onnectivities');
#372=UNCERTAINTY_MEASURE_WITH_UNIT(LENGTH_MEASURE(0.001),#375,
'DISTANCE_ACCURACY_VALUE',
'Maximum model space distance between geometric entities at asserted c
onnectivities');
#373=(
GEOMETRIC_REPRESENTATION_CONTEXT(3)
GLOBAL_UNCERTAINTY_ASSIGNED_CONTEXT((#371))
GLOBAL_UNIT_ASSIGNED_CONTEXT((#375,#377,#378))
REPRESENTATION_CONTEXT('','3D')
);
#374=(
GEOMETRIC_REPRESENTATION_CONTEXT(3)
GLOBAL_UNCERTAINTY_ASSIGNED_CONTEXT((#372))
GLOBAL_UNIT_ASSIGNED_CONTEXT((#375,#377,#378))
REPRESENTATION_CONTEXT('','3D')
);
#375=(
LENGTH_UNIT()
NAMED_UNIT(*)
SI_UNIT(.CENTI.,.METRE.)
);
#376=(
LENGTH_UNIT()
NAMED_UNIT(*)
SI_UNIT($,.METRE.)
);
#377=(
NAMED_UNIT(*)
PLANE_ANGLE_UNIT()
SI_UNIT($,.RADIAN.)
);
#378=(
NAMED_UNIT(*)
SI_UNIT($,.STERADIAN.)
SOLID_ANGLE_UNIT()
);
#379=SHAPE_DEFINITION_REPRESENTATION(#380,#381);
#380=PRODUCT_DEFINITION_SHAPE('',$,#383);
#381=SHAPE_REPRESENTATION('',(#208),#373);
#382=PRODUCT_DEFINITION_CONTEXT('part definition',#387,'design');
#383=PRODUCT_DEFINITION('2026-08-26-00-51-53-560','obroom',#384,#382);
#384=PRODUCT_DEFINITION_FORMATION('',$,#389);
#385=PRODUCT_RELATED_PRODUCT_CATEGORY('obroom','obroom',(#389));
#386=APPLICATION_PROTOCOL_DEFINITION('international standard',
'automotive_design',2009,#387);
#387=APPLICATION_CONTEXT(
'Core Data for Automotive Mechanical Design Process');
#388=PRODUCT_CONTEXT('part definition',#387,'mechanical');
#389=PRODUCT('2026-08-26-00-51-53-560','obroom',$,(#388));
#390=PRESENTATION_STYLE_ASSIGNMENT((#397));
#391=PRESENTATION_STYLE_ASSIGNMENT((#398));
#392=PRESENTATION_STYLE_ASSIGNMENT((#399));
#393=PRESENTATION_STYLE_ASSIGNMENT((#400));
#394=PRESENTATION_STYLE_ASSIGNMENT((#401));
#395=PRESENTATION_STYLE_ASSIGNMENT((#402));
#396=PRESENTATION_STYLE_ASSIGNMENT((#403));
#397=SURFACE_STYLE_USAGE(.BOTH.,#404);
#398=SURFACE_STYLE_USAGE(.BOTH.,#405);
#399=SURFACE_STYLE_USAGE(.BOTH.,#406);
#400=SURFACE_STYLE_USAGE(.BOTH.,#407);
#401=SURFACE_STYLE_USAGE(.BOTH.,#408);
#402=SURFACE_STYLE_USAGE(.BOTH.,#409);
#403=SURFACE_STYLE_USAGE(.BOTH.,#410);
#404=SURFACE_SIDE_STYLE('',(#411));
#405=SURFACE_SIDE_STYLE('',(#412));
#406=SURFACE_SIDE_STYLE('',(#413));
#407=SURFACE_SIDE_STYLE('',(#414));
#408=SURFACE_SIDE_STYLE('',(#415));
#409=SURFACE_SIDE_STYLE('',(#416));
#410=SURFACE_SIDE_STYLE('',(#417));
#411=SURFACE_STYLE_FILL_AREA(#418);
#412=SURFACE_STYLE_FILL_AREA(#419);
#413=SURFACE_STYLE_FILL_AREA(#420);
#414=SURFACE_STYLE_FILL_AREA(#421);
#415=SURFACE_STYLE_FILL_AREA(#422);
#416=SURFACE_STYLE_FILL_AREA(#423);
#417=SURFACE_STYLE_FILL_AREA(#424);
#418=FILL_AREA_STYLE('Steel - Satin',(#425));
#419=FILL_AREA_STYLE('PEEK',(#426));
#420=FILL_AREA_STYLE('Paek (Beige)',(#427));
#421=FILL_AREA_STYLE('Paint - Metallic (Yellow)',(#428));
#422=FILL_AREA_STYLE('Plastic - Translucent Glossy (Blue)',(#429));
#423=FILL_AREA_STYLE('Granite - Black and White',(#430));
#424=FILL_AREA_STYLE('Paint - Metallic (Silver)',(#431));
#425=FILL_AREA_STYLE_COLOUR('Steel - Satin',#432);
#426=FILL_AREA_STYLE_COLOUR('PEEK',#433);
#427=FILL_AREA_STYLE_COLOUR('Paek (Beige)',#434);
#428=FILL_AREA_STYLE_COLOUR('Paint - Metallic (Yellow)',#435);
#429=FILL_AREA_STYLE_COLOUR('Plastic - Translucent Glossy (Blue)',#436);
#430=FILL_AREA_STYLE_COLOUR('Granite - Black and White',#437);
#431=FILL_AREA_STYLE_COLOUR('Paint - Metallic (Silver)',#438);
#432=COLOUR_RGB('Steel - Satin',0.627450980392157,0.627450980392157,0.627450980392157);
#433=COLOUR_RGB('PEEK',0.6,0.509803921568627,0.368627450980392);
#434=COLOUR_RGB('Paek (Beige)',0.898039215686275,0.792156862745098,0.619607843137255);
#435=COLOUR_RGB('Paint - Metallic (Yellow)',0.909803921568627,0.67843137254902,
0.137254901960784);
#436=COLOUR_RGB('Plastic - Translucent Glossy (Blue)',0.188235294117647,
0.231372549019608,0.588235294117647);
#437=COLOUR_RGB('Granite - Black and White',0.,0.,0.);
#438=COLOUR_RGB('Paint - Metallic (Silver)',0.984313725490196,0.980392156862745,
0.96078431372549);
ENDSEC;
END-ISO-10303-21;
