ISO-10303-21;
HEADER;
/* Generated by software containing ST-Developer
 * from STEP Tools, Inc. (www.steptools.com) 
 */

FILE_DESCRIPTION(
/* description */ (''),
/* implementation_level */ '2;1');

FILE_NAME(
/* name */ 'Body89.step',
/* time_stamp */ '2026-09-03T13:29:11+01:00',
/* author */ (''),
/* organization */ (''),
/* preprocessor_version */ 'ST-DEVELOPER v20.1',
/* originating_system */ 'Autodesk Translation Framework v15.8.0.0',
/* authorisation */ '');

FILE_SCHEMA (('AUTOMOTIVE_DESIGN { 1 0 10303 214 3 1 1 }'));
ENDSEC;

DATA;
#10=MECHANICAL_DESIGN_GEOMETRIC_PRESENTATION_REPRESENTATION('',(#13),#293);
#11=SHAPE_REPRESENTATION_RELATIONSHIP('SRR','None',#300,#12);
#12=ADVANCED_BREP_SHAPE_REPRESENTATION('',(#14),#292);
#13=STYLED_ITEM('',(#315),#14);
#14=MANIFOLD_SOLID_BREP('Body89',#116);
#15=PLANE('',#137);
#16=PLANE('',#138);
#17=CYLINDRICAL_SURFACE('',#133,0.0149999999999999);
#18=CYLINDRICAL_SURFACE('',#134,0.0426312204537158);
#19=FACE_BOUND('',#35,.T.);
#20=FACE_BOUND('',#36,.T.);
#21=FACE_BOUND('',#41,.T.);
#22=B_SPLINE_CURVE_WITH_KNOTS('',3,(#175,#176,#177,#178,#179,#180,#181),
 .UNSPECIFIED.,.F.,.F.,(4,3,4),(-0.000307341155103848,0.,0.0018635825793865),
 .UNSPECIFIED.);
#23=B_SPLINE_CURVE_WITH_KNOTS('',3,(#183,#184,#185,#186,#187,#188,#189,
#190,#191,#192,#193,#194),.UNSPECIFIED.,.F.,.F.,(4,2,2,2,2,4),(0.0018635825793865,
0.00300030395891898,0.00600060791783797,0.0120012158356759,0.0209909239211325,
0.0296584652902339),.UNSPECIFIED.);
#24=B_SPLINE_CURVE_WITH_KNOTS('',3,(#195,#196,#197,#198,#199,#200,#201,
#202,#203,#204,#205,#206,#207,#208,#209,#210,#211,#212,#213,#214,#215,#216,
#217,#218,#219,#220,#221,#222,#223,#224),.UNSPECIFIED.,.F.,.F.,(4,2,2,2,
2,2,2,2,2,2,2,2,2,2,4),(0.0296584652902339,0.029980632006589,0.0371680640301823,
0.0443554960537756,0.0498896212122311,0.0554237463706866,0.061278875679656,
0.0671340049886253,0.0740137867676845,0.0808935685467438,0.089017831251642,
0.0971420939565403,0.105519328510467,0.108128450485093,0.110430218415235),
 .UNSPECIFIED.);
#25=B_SPLINE_CURVE_WITH_KNOTS('',3,(#227,#228,#229,#230,#231,#232,#233),
 .UNSPECIFIED.,.F.,.F.,(4,3,4),(-0.00186358111676523,0.,0.000307354044484392),
 .UNSPECIFIED.);
#26=B_SPLINE_CURVE_WITH_KNOTS('',3,(#235,#236,#237,#238,#239,#240,#241,
#242,#243,#244,#245,#246,#247,#248,#249,#250,#251,#252,#253,#254,#255,#256,
#257,#258,#259,#260,#261,#262,#263,#264),.UNSPECIFIED.,.F.,.F.,(4,2,2,2,
2,2,2,2,2,2,2,2,2,2,4),(0.000307354044484392,0.00260912197462598,0.00521824394925196,
0.013595478503179,0.0217197412080773,0.0298440039129756,0.0367237856920348,
0.0436035674710941,0.0494586967800634,0.0553138260890327,0.0608479512474882,
0.0663820764059437,0.0735695084295371,0.0807569404531304,0.0810791071694847),
 .UNSPECIFIED.);
#27=B_SPLINE_CURVE_WITH_KNOTS('',3,(#265,#266,#267,#268,#269,#270,#271,
#272,#273,#274,#275,#276),.UNSPECIFIED.,.F.,.F.,(4,2,2,2,2,4),(0.0810791071694847,
0.0897466485385869,0.0987363566240434,0.104736964541881,0.1077372685008,
0.108873989880334),.UNSPECIFIED.);
#28=FACE_OUTER_BOUND('',#34,.T.);
#29=FACE_OUTER_BOUND('',#37,.T.);
#30=FACE_OUTER_BOUND('',#38,.T.);
#31=FACE_OUTER_BOUND('',#39,.T.);
#32=FACE_OUTER_BOUND('',#40,.T.);
#33=FACE_OUTER_BOUND('',#42,.T.);
#34=EDGE_LOOP('',(#80,#81,#82,#83));
#35=EDGE_LOOP('',(#84,#85,#86));
#36=EDGE_LOOP('',(#87,#88,#89));
#37=EDGE_LOOP('',(#90,#91,#92,#93,#94,#95,#96,#97));
#38=EDGE_LOOP('',(#98,#99,#100,#101));
#39=EDGE_LOOP('',(#102));
#40=EDGE_LOOP('',(#103));
#41=EDGE_LOOP('',(#104));
#42=EDGE_LOOP('',(#105,#106,#107));
#43=LINE('',#171,#47);
#44=LINE('',#278,#48);
#45=LINE('',#283,#49);
#46=LINE('',#289,#50);
#47=VECTOR('',#146,0.0755443267071421);
#48=VECTOR('',#151,0.0149999999999999);
#49=VECTOR('',#156,0.0426312204537158);
#50=VECTOR('',#165,0.0999729325370886);
#51=CIRCLE('',#131,0.0999729325370886);
#52=CIRCLE('',#132,0.0511157208771955);
#53=CIRCLE('',#135,0.0426312204537158);
#54=CIRCLE('',#136,0.0426312204537158);
#55=VERTEX_POINT('',#168);
#56=VERTEX_POINT('',#170);
#57=VERTEX_POINT('',#173);
#58=VERTEX_POINT('',#174);
#59=VERTEX_POINT('',#182);
#60=VERTEX_POINT('',#225);
#61=VERTEX_POINT('',#226);
#62=VERTEX_POINT('',#234);
#63=VERTEX_POINT('',#280);
#64=VERTEX_POINT('',#282);
#65=VERTEX_POINT('',#288);
#66=EDGE_CURVE('',#55,#55,#51,.T.);
#67=EDGE_CURVE('',#55,#56,#43,.T.);
#68=EDGE_CURVE('',#56,#56,#52,.T.);
#69=EDGE_CURVE('',#57,#58,#22,.T.);
#70=EDGE_CURVE('',#58,#59,#23,.T.);
#71=EDGE_CURVE('',#59,#57,#24,.T.);
#72=EDGE_CURVE('',#60,#61,#25,.T.);
#73=EDGE_CURVE('',#61,#62,#26,.T.);
#74=EDGE_CURVE('',#62,#60,#27,.T.);
#75=EDGE_CURVE('',#59,#62,#44,.T.);
#76=EDGE_CURVE('',#63,#63,#53,.T.);
#77=EDGE_CURVE('',#63,#64,#45,.T.);
#78=EDGE_CURVE('',#64,#64,#54,.T.);
#79=EDGE_CURVE('',#65,#55,#46,.T.);
#80=ORIENTED_EDGE('',*,*,#66,.F.);
#81=ORIENTED_EDGE('',*,*,#67,.T.);
#82=ORIENTED_EDGE('',*,*,#68,.T.);
#83=ORIENTED_EDGE('',*,*,#67,.F.);
#84=ORIENTED_EDGE('',*,*,#69,.T.);
#85=ORIENTED_EDGE('',*,*,#70,.T.);
#86=ORIENTED_EDGE('',*,*,#71,.T.);
#87=ORIENTED_EDGE('',*,*,#72,.T.);
#88=ORIENTED_EDGE('',*,*,#73,.T.);
#89=ORIENTED_EDGE('',*,*,#74,.T.);
#90=ORIENTED_EDGE('',*,*,#69,.F.);
#91=ORIENTED_EDGE('',*,*,#71,.F.);
#92=ORIENTED_EDGE('',*,*,#75,.T.);
#93=ORIENTED_EDGE('',*,*,#73,.F.);
#94=ORIENTED_EDGE('',*,*,#72,.F.);
#95=ORIENTED_EDGE('',*,*,#74,.F.);
#96=ORIENTED_EDGE('',*,*,#75,.F.);
#97=ORIENTED_EDGE('',*,*,#70,.F.);
#98=ORIENTED_EDGE('',*,*,#76,.F.);
#99=ORIENTED_EDGE('',*,*,#77,.T.);
#100=ORIENTED_EDGE('',*,*,#78,.T.);
#101=ORIENTED_EDGE('',*,*,#77,.F.);
#102=ORIENTED_EDGE('',*,*,#78,.F.);
#103=ORIENTED_EDGE('',*,*,#68,.F.);
#104=ORIENTED_EDGE('',*,*,#76,.T.);
#105=ORIENTED_EDGE('',*,*,#79,.T.);
#106=ORIENTED_EDGE('',*,*,#66,.T.);
#107=ORIENTED_EDGE('',*,*,#79,.F.);
#108=CONICAL_SURFACE('',#130,0.0755443267071421,0.023267438225285);
#109=CONICAL_SURFACE('',#139,0.0999729325370886,1.54752888856961);
#110=ADVANCED_FACE('',(#28,#19,#20),#108,.T.);
#111=ADVANCED_FACE('',(#29),#17,.F.);
#112=ADVANCED_FACE('',(#30),#18,.F.);
#113=ADVANCED_FACE('',(#31),#15,.T.);
#114=ADVANCED_FACE('',(#32,#21),#16,.T.);
#115=ADVANCED_FACE('',(#33),#109,.T.);
#116=CLOSED_SHELL('',(#110,#111,#112,#113,#114,#115));
#117=DERIVED_UNIT_ELEMENT(#119,1.);
#118=DERIVED_UNIT_ELEMENT(#295,-3.);
#119=(
MASS_UNIT()
NAMED_UNIT(*)
SI_UNIT(.KILO.,.GRAM.)
);
#120=DERIVED_UNIT((#117,#118));
#121=MEASURE_REPRESENTATION_ITEM('density measure',
POSITIVE_RATIO_MEASURE(7850.),#120);
#122=PROPERTY_DEFINITION_REPRESENTATION(#127,#124);
#123=PROPERTY_DEFINITION_REPRESENTATION(#128,#125);
#124=REPRESENTATION('material name',(#126),#292);
#125=REPRESENTATION('density',(#121),#292);
#126=DESCRIPTIVE_REPRESENTATION_ITEM('Steel','Steel');
#127=PROPERTY_DEFINITION('material property','material name',#302);
#128=PROPERTY_DEFINITION('material property','density of part',#302);
#129=AXIS2_PLACEMENT_3D('',#166,#140,#141);
#130=AXIS2_PLACEMENT_3D('',#167,#142,#143);
#131=AXIS2_PLACEMENT_3D('',#169,#144,#145);
#132=AXIS2_PLACEMENT_3D('',#172,#147,#148);
#133=AXIS2_PLACEMENT_3D('',#277,#149,#150);
#134=AXIS2_PLACEMENT_3D('',#279,#152,#153);
#135=AXIS2_PLACEMENT_3D('',#281,#154,#155);
#136=AXIS2_PLACEMENT_3D('',#284,#157,#158);
#137=AXIS2_PLACEMENT_3D('',#285,#159,#160);
#138=AXIS2_PLACEMENT_3D('',#286,#161,#162);
#139=AXIS2_PLACEMENT_3D('',#287,#163,#164);
#140=DIRECTION('axis',(0.,0.,1.));
#141=DIRECTION('refdir',(1.,0.,0.));
#142=DIRECTION('center_axis',(0.,0.642787609686539,0.766044443118978));
#143=DIRECTION('ref_axis',(0.,-0.766044443118978,0.642787609686539));
#144=DIRECTION('center_axis',(0.,0.642787609686539,0.766044443118978));
#145=DIRECTION('ref_axis',(1.,0.,0.));
#146=DIRECTION('',(2.84918227974061E-18,-0.660435906959333,-0.750882422752592));
#147=DIRECTION('center_axis',(0.,0.642787609686539,0.766044443118978));
#148=DIRECTION('ref_axis',(1.,0.,0.));
#149=DIRECTION('center_axis',(-1.,0.,0.));
#150=DIRECTION('ref_axis',(0.,0.642787609686539,0.766044443118978));
#151=DIRECTION('',(-1.,0.,0.));
#152=DIRECTION('center_axis',(0.,0.642787609686539,0.766044443118978));
#153=DIRECTION('ref_axis',(1.,0.,0.));
#154=DIRECTION('center_axis',(0.,0.642787609686539,0.766044443118978));
#155=DIRECTION('ref_axis',(1.,0.,0.));
#156=DIRECTION('',(0.,0.642787609686539,0.766044443118978));
#157=DIRECTION('center_axis',(0.,0.642787609686539,0.766044443118978));
#158=DIRECTION('ref_axis',(1.,0.,0.));
#159=DIRECTION('center_axis',(0.,-0.642787609686539,-0.766044443118978));
#160=DIRECTION('ref_axis',(1.,0.,0.));
#161=DIRECTION('center_axis',(0.,-0.642787609686539,-0.766044443118978));
#162=DIRECTION('ref_axis',(0.,0.766044443118978,-0.642787609686539));
#163=DIRECTION('center_axis',(0.,-0.642787609686539,-0.766044443118978));
#164=DIRECTION('ref_axis',(0.,-0.766044443118978,0.642787609686539));
#165=DIRECTION('',(-1.2243153183292E-16,0.750882422752592,-0.660435906959334));
#166=CARTESIAN_POINT('',(0.,0.,0.));
#167=CARTESIAN_POINT('Origin',(9.60060259500567,-3.2747214553187,16.2794301203284));
#168=CARTESIAN_POINT('',(9.60060259500567,-2.52339344132823,17.0192977070292));
#169=CARTESIAN_POINT('Origin',(9.60060259500567,-2.59997715076057,17.0835590693681));
#170=CARTESIAN_POINT('',(9.60060259500567,-3.91030884594283,15.4424446192487));
#171=CARTESIAN_POINT('',(9.60060259500567,-3.21685114363553,16.230871163139));
#172=CARTESIAN_POINT('Origin',(9.60060259500567,-3.94946575987682,15.4753011712888));
#173=CARTESIAN_POINT('',(9.63394131784751,-3.3220187043723,16.1236771563376));
#174=CARTESIAN_POINT('',(9.63412270087399,-3.32349774982329,16.1221490357905));
#175=CARTESIAN_POINT('Ctrl Pts',(9.63394131784751,-3.3220187043723,16.1236771563376));
#176=CARTESIAN_POINT('Ctrl Pts',(9.63393609673129,-3.32208542458618,16.123597642283));
#177=CARTESIAN_POINT('Ctrl Pts',(9.63393297163041,-3.32215258697727,16.1235192791403));
#178=CARTESIAN_POINT('Ctrl Pts',(9.63393186912009,-3.32222003961069,16.1234421796908));
#179=CARTESIAN_POINT('Ctrl Pts',(9.63392518397881,-3.32262904292998,16.1229746822905));
#180=CARTESIAN_POINT('Ctrl Pts',(9.63399276338567,-3.32305673107577,16.1225443212387));
#181=CARTESIAN_POINT('Ctrl Pts',(9.63412270087399,-3.32349774982329,16.1221490357905));
#182=CARTESIAN_POINT('',(9.65306984144504,-3.34315118516439,16.1218283038361));
#183=CARTESIAN_POINT('Ctrl Pts',(9.63412270087399,-3.32349774982329,16.1221490357905));
#184=CARTESIAN_POINT('Ctrl Pts',(9.63420195827993,-3.32376675611506,16.121907925241));
#185=CARTESIAN_POINT('Ctrl Pts',(9.6343043932694,-3.32404073985692,16.1216798769481));
#186=CARTESIAN_POINT('Ctrl Pts',(9.63475095909594,-3.32505192683761,16.1208958853915));
#187=CARTESIAN_POINT('Ctrl Pts',(9.63521586330617,-3.32581218637258,16.1204151898269));
#188=CARTESIAN_POINT('Ctrl Pts',(9.63687411298553,-3.32811495722589,16.119216300248));
#189=CARTESIAN_POINT('Ctrl Pts',(9.63832552692131,-3.32968482786347,16.1187440659945));
#190=CARTESIAN_POINT('Ctrl Pts',(9.641810256118,-3.33321943458723,16.11816878505));
#191=CARTESIAN_POINT('Ctrl Pts',(9.6442080337385,-3.33543111290539,16.1182782072336));
#192=CARTESIAN_POINT('Ctrl Pts',(9.64884727528814,-3.33957846247183,16.1194432543268));
#193=CARTESIAN_POINT('Ctrl Pts',(9.65109030377966,-3.34152362601762,16.1204626195564));
#194=CARTESIAN_POINT('Ctrl Pts',(9.65306984144504,-3.34315118516438,16.1218283038361));
#195=CARTESIAN_POINT('Ctrl Pts',(9.65306984144504,-3.34315118516438,16.1218283038361));
#196=CARTESIAN_POINT('Ctrl Pts',(9.65314341953627,-3.34321168044945,16.1218790654075));
#197=CARTESIAN_POINT('Ctrl Pts',(9.65321664652933,-3.34327174373195,16.1219302786444));
#198=CARTESIAN_POINT('Ctrl Pts',(9.65491515207211,-3.34466149324158,16.123134306617));
#199=CARTESIAN_POINT('Ctrl Pts',(9.65658187845101,-3.34595714498506,16.1246863891071));
#200=CARTESIAN_POINT('Ctrl Pts',(9.65950231513887,-3.34783499697329,16.1284168671158));
#201=CARTESIAN_POINT('Ctrl Pts',(9.66075960190007,-3.34842191011824,16.1305900862521));
#202=CARTESIAN_POINT('Ctrl Pts',(9.66244737744135,-3.34855998500668,16.1344778042141));
#203=CARTESIAN_POINT('Ctrl Pts',(9.66307878918595,-3.34832018658038,16.1363670922241));
#204=CARTESIAN_POINT('Ctrl Pts',(9.66393605046695,-3.34708691139054,16.1399714361365));
#205=CARTESIAN_POINT('Ctrl Pts',(9.66416516512994,-3.34609474390813,16.1416861625797));
#206=CARTESIAN_POINT('Ctrl Pts',(9.66424311674924,-3.34362329911641,16.1445669046717));
#207=CARTESIAN_POINT('Ctrl Pts',(9.66407411560899,-3.34197374678426,16.145864359933));
#208=CARTESIAN_POINT('Ctrl Pts',(9.66327108369801,-3.33836449543024,16.1476546352475));
#209=CARTESIAN_POINT('Ctrl Pts',(9.66263281018713,-3.33640484752989,16.1481456523048));
#210=CARTESIAN_POINT('Ctrl Pts',(9.66095524718816,-3.33251606103645,16.1484335678704));
#211=CARTESIAN_POINT('Ctrl Pts',(9.65975238634678,-3.3303802197637,16.1481219802111));
#212=CARTESIAN_POINT('Ctrl Pts',(9.65695540863844,-3.32660066450076,16.1467868599933));
#213=CARTESIAN_POINT('Ctrl Pts',(9.65535844170799,-3.32496057077972,16.1457590569755));
#214=CARTESIAN_POINT('Ctrl Pts',(9.65196485789579,-3.32218387602063,16.1433534305383));
#215=CARTESIAN_POINT('Ctrl Pts',(9.6498619840403,-3.32092271361787,16.1417128372521));
#216=CARTESIAN_POINT('Ctrl Pts',(9.64556477455779,-3.31916740660756,16.1381482062079));
#217=CARTESIAN_POINT('Ctrl Pts',(9.64337167047952,-3.31867434126577,16.1362221528194));
#218=CARTESIAN_POINT('Ctrl Pts',(9.63939812797795,-3.31841188586135,16.1324277401709));
#219=CARTESIAN_POINT('Ctrl Pts',(9.63707701667359,-3.31868348983942,16.1300262483438));
#220=CARTESIAN_POINT('Ctrl Pts',(9.63515458893051,-3.31982713558441,16.1271266862387));
#221=CARTESIAN_POINT('Ctrl Pts',(9.6347170604338,-3.32019130663983,16.1263602554591));
#222=CARTESIAN_POINT('Ctrl Pts',(9.63414526441531,-3.32104749922018,16.1249346336767));
#223=CARTESIAN_POINT('Ctrl Pts',(9.63398041725137,-3.32151905631304,16.1242726137073));
#224=CARTESIAN_POINT('Ctrl Pts',(9.63394131784751,-3.3220187043723,16.1236771563376));
#225=CARTESIAN_POINT('',(9.56708248913734,-3.32349774982329,16.1221490357905));
#226=CARTESIAN_POINT('',(9.56726387216382,-3.3220187043723,16.1236771563376));
#227=CARTESIAN_POINT('Ctrl Pts',(9.56708248913734,-3.32349774982329,16.1221490357905));
#228=CARTESIAN_POINT('Ctrl Pts',(9.56721242656039,-3.32305673129734,16.1225443210401));
#229=CARTESIAN_POINT('Ctrl Pts',(9.56728000602728,-3.32262904260897,16.1229746826574));
#230=CARTESIAN_POINT('Ctrl Pts',(9.56727332089125,-3.32222003961069,16.1234421796908));
#231=CARTESIAN_POINT('Ctrl Pts',(9.56727221833468,-3.32215258414841,16.1235192823737));
#232=CARTESIAN_POINT('Ctrl Pts',(9.56726909308977,-3.32208542215468,16.1235976451808));
#233=CARTESIAN_POINT('Ctrl Pts',(9.56726387216382,-3.3220187043723,16.1236771563376));
#234=CARTESIAN_POINT('',(9.54813534856629,-3.34315118516439,16.1218283038361));
#235=CARTESIAN_POINT('Ctrl Pts',(9.56726387216382,-3.3220187043723,16.1236771563376));
#236=CARTESIAN_POINT('Ctrl Pts',(9.56722477275997,-3.32151905631304,16.1242726137073));
#237=CARTESIAN_POINT('Ctrl Pts',(9.56705992559602,-3.32104749922018,16.1249346336767));
#238=CARTESIAN_POINT('Ctrl Pts',(9.56648812957753,-3.32019130663983,16.1263602554591));
#239=CARTESIAN_POINT('Ctrl Pts',(9.56605060108082,-3.31982713558441,16.1271266862387));
#240=CARTESIAN_POINT('Ctrl Pts',(9.56412817333775,-3.31868348983942,16.1300262483438));
#241=CARTESIAN_POINT('Ctrl Pts',(9.56180706203338,-3.31841188586135,16.1324277401709));
#242=CARTESIAN_POINT('Ctrl Pts',(9.55783351953181,-3.31867434126577,16.1362221528194));
#243=CARTESIAN_POINT('Ctrl Pts',(9.55564041545355,-3.31916740660756,16.1381482062079));
#244=CARTESIAN_POINT('Ctrl Pts',(9.55134320597103,-3.32092271361787,16.1417128372521));
#245=CARTESIAN_POINT('Ctrl Pts',(9.54924033211554,-3.32218387602063,16.1433534305383));
#246=CARTESIAN_POINT('Ctrl Pts',(9.54584674830334,-3.32496057077972,16.1457590569755));
#247=CARTESIAN_POINT('Ctrl Pts',(9.54424978137289,-3.32660066450076,16.1467868599933));
#248=CARTESIAN_POINT('Ctrl Pts',(9.54145280366455,-3.3303802197637,16.1481219802111));
#249=CARTESIAN_POINT('Ctrl Pts',(9.54024994282317,-3.33251606103645,16.1484335678704));
#250=CARTESIAN_POINT('Ctrl Pts',(9.5385723798242,-3.33640484752989,16.1481456523048));
#251=CARTESIAN_POINT('Ctrl Pts',(9.53793410631332,-3.33836449543024,16.1476546352475));
#252=CARTESIAN_POINT('Ctrl Pts',(9.53713107440234,-3.34197374678426,16.145864359933));
#253=CARTESIAN_POINT('Ctrl Pts',(9.53696207326209,-3.34362329911641,16.1445669046717));
#254=CARTESIAN_POINT('Ctrl Pts',(9.53704002488139,-3.34609474390813,16.1416861625797));
#255=CARTESIAN_POINT('Ctrl Pts',(9.53726913954438,-3.34708691139054,16.1399714361365));
#256=CARTESIAN_POINT('Ctrl Pts',(9.53812640082539,-3.34832018658038,16.1363670922241));
#257=CARTESIAN_POINT('Ctrl Pts',(9.53875781256998,-3.34855998500668,16.1344778042141));
#258=CARTESIAN_POINT('Ctrl Pts',(9.54044558811127,-3.34842191011824,16.1305900862521));
#259=CARTESIAN_POINT('Ctrl Pts',(9.54170287487247,-3.34783499697329,16.1284168671158));
#260=CARTESIAN_POINT('Ctrl Pts',(9.54462331156032,-3.34595714498506,16.1246863891071));
#261=CARTESIAN_POINT('Ctrl Pts',(9.54629003793922,-3.34466149324158,16.123134306617));
#262=CARTESIAN_POINT('Ctrl Pts',(9.547988543482,-3.34327174373195,16.1219302786444));
#263=CARTESIAN_POINT('Ctrl Pts',(9.54806177047507,-3.34321168044946,16.1218790654075));
#264=CARTESIAN_POINT('Ctrl Pts',(9.54813534856629,-3.34315118516438,16.1218283038361));
#265=CARTESIAN_POINT('Ctrl Pts',(9.54813534856629,-3.34315118516438,16.1218283038361));
#266=CARTESIAN_POINT('Ctrl Pts',(9.55011488623167,-3.34152362601762,16.1204626195564));
#267=CARTESIAN_POINT('Ctrl Pts',(9.5523579147232,-3.33957846247183,16.1194432543268));
#268=CARTESIAN_POINT('Ctrl Pts',(9.55699715627283,-3.33543111290539,16.1182782072336));
#269=CARTESIAN_POINT('Ctrl Pts',(9.55939493389333,-3.33321943458723,16.11816878505));
#270=CARTESIAN_POINT('Ctrl Pts',(9.56287966309002,-3.32968482786347,16.1187440659945));
#271=CARTESIAN_POINT('Ctrl Pts',(9.5643310770258,-3.32811495722589,16.119216300248));
#272=CARTESIAN_POINT('Ctrl Pts',(9.56598932670516,-3.32581218637258,16.1204151898269));
#273=CARTESIAN_POINT('Ctrl Pts',(9.56645423091539,-3.32505192683761,16.1208958853915));
#274=CARTESIAN_POINT('Ctrl Pts',(9.56690079674194,-3.32404073985692,16.1216798769481));
#275=CARTESIAN_POINT('Ctrl Pts',(9.5670032317314,-3.32376675611506,16.121907925241));
#276=CARTESIAN_POINT('Ctrl Pts',(9.56708248913734,-3.32349774982329,16.1221490357905));
#277=CARTESIAN_POINT('Origin',(9.60060259500567,-3.33350937101909,16.1333189704829));
#278=CARTESIAN_POINT('',(9.60060259500567,-3.34315118516439,16.1218283038361));
#279=CARTESIAN_POINT('Origin',(9.60060259500567,-3.94946575987682,15.4753011712888));
#280=CARTESIAN_POINT('',(9.55797137455195,-3.94946575987682,15.4753011712888));
#281=CARTESIAN_POINT('Origin',(9.60060259500567,-3.94946575987682,15.4753011712888));
#282=CARTESIAN_POINT('',(9.55797137455195,-3.94303788377996,15.48296161572));
#283=CARTESIAN_POINT('',(9.55797137455195,-3.94946575987682,15.4753011712888));
#284=CARTESIAN_POINT('Origin',(9.60060259500567,-3.94303788377996,15.48296161572));
#285=CARTESIAN_POINT('Origin',(9.60060259500567,-3.94303788377996,15.48296161572));
#286=CARTESIAN_POINT('Origin',(9.60060259500567,-3.98862267381082,15.5081577233289));
#287=CARTESIAN_POINT('Origin',(9.60060259500567,-2.59997715076057,17.0835590693681));
#288=CARTESIAN_POINT('',(9.60060259500567,-2.59848168360349,17.0853412977251));
#289=CARTESIAN_POINT('',(9.60060259500567,-2.52339344132823,17.0192977070292));
#290=UNCERTAINTY_MEASURE_WITH_UNIT(LENGTH_MEASURE(0.001),#294,
'DISTANCE_ACCURACY_VALUE',
'Maximum model space distance between geometric entities at asserted c
onnectivities');
#291=UNCERTAINTY_MEASURE_WITH_UNIT(LENGTH_MEASURE(0.001),#294,
'DISTANCE_ACCURACY_VALUE',
'Maximum model space distance between geometric entities at asserted c
onnectivities');
#292=(
GEOMETRIC_REPRESENTATION_CONTEXT(3)
GLOBAL_UNCERTAINTY_ASSIGNED_CONTEXT((#290))
GLOBAL_UNIT_ASSIGNED_CONTEXT((#294,#296,#297))
REPRESENTATION_CONTEXT('','3D')
);
#293=(
GEOMETRIC_REPRESENTATION_CONTEXT(3)
GLOBAL_UNCERTAINTY_ASSIGNED_CONTEXT((#291))
GLOBAL_UNIT_ASSIGNED_CONTEXT((#294,#296,#297))
REPRESENTATION_CONTEXT('','3D')
);
#294=(
LENGTH_UNIT()
NAMED_UNIT(*)
SI_UNIT(.CENTI.,.METRE.)
);
#295=(
LENGTH_UNIT()
NAMED_UNIT(*)
SI_UNIT($,.METRE.)
);
#296=(
NAMED_UNIT(*)
PLANE_ANGLE_UNIT()
SI_UNIT($,.RADIAN.)
);
#297=(
NAMED_UNIT(*)
SI_UNIT($,.STERADIAN.)
SOLID_ANGLE_UNIT()
);
#298=SHAPE_DEFINITION_REPRESENTATION(#299,#300);
#299=PRODUCT_DEFINITION_SHAPE('',$,#302);
#300=SHAPE_REPRESENTATION('',(#129),#292);
#301=PRODUCT_DEFINITION_CONTEXT('part definition',#306,'design');
#302=PRODUCT_DEFINITION('2026-08-26-00-51-53-560','obroom',#303,#301);
#303=PRODUCT_DEFINITION_FORMATION('',$,#308);
#304=PRODUCT_RELATED_PRODUCT_CATEGORY('obroom','obroom',(#308));
#305=APPLICATION_PROTOCOL_DEFINITION('international standard',
'automotive_design',2009,#306);
#306=APPLICATION_CONTEXT(
'Core Data for Automotive Mechanical Design Process');
#307=PRODUCT_CONTEXT('part definition',#306,'mechanical');
#308=PRODUCT('2026-08-26-00-51-53-560','obroom',$,(#307));
#309=PRESENTATION_STYLE_ASSIGNMENT((#316));
#310=PRESENTATION_STYLE_ASSIGNMENT((#317));
#311=PRESENTATION_STYLE_ASSIGNMENT((#318));
#312=PRESENTATION_STYLE_ASSIGNMENT((#319));
#313=PRESENTATION_STYLE_ASSIGNMENT((#320));
#314=PRESENTATION_STYLE_ASSIGNMENT((#321));
#315=PRESENTATION_STYLE_ASSIGNMENT((#322));
#316=SURFACE_STYLE_USAGE(.BOTH.,#323);
#317=SURFACE_STYLE_USAGE(.BOTH.,#324);
#318=SURFACE_STYLE_USAGE(.BOTH.,#325);
#319=SURFACE_STYLE_USAGE(.BOTH.,#326);
#320=SURFACE_STYLE_USAGE(.BOTH.,#327);
#321=SURFACE_STYLE_USAGE(.BOTH.,#328);
#322=SURFACE_STYLE_USAGE(.BOTH.,#329);
#323=SURFACE_SIDE_STYLE('',(#330));
#324=SURFACE_SIDE_STYLE('',(#331));
#325=SURFACE_SIDE_STYLE('',(#332));
#326=SURFACE_SIDE_STYLE('',(#333));
#327=SURFACE_SIDE_STYLE('',(#334));
#328=SURFACE_SIDE_STYLE('',(#335));
#329=SURFACE_SIDE_STYLE('',(#336));
#330=SURFACE_STYLE_FILL_AREA(#337);
#331=SURFACE_STYLE_FILL_AREA(#338);
#332=SURFACE_STYLE_FILL_AREA(#339);
#333=SURFACE_STYLE_FILL_AREA(#340);
#334=SURFACE_STYLE_FILL_AREA(#341);
#335=SURFACE_STYLE_FILL_AREA(#342);
#336=SURFACE_STYLE_FILL_AREA(#343);
#337=FILL_AREA_STYLE('Steel - Satin',(#344));
#338=FILL_AREA_STYLE('PEEK',(#345));
#339=FILL_AREA_STYLE('Paek (Beige)',(#346));
#340=FILL_AREA_STYLE('Paint - Metallic (Yellow)',(#347));
#341=FILL_AREA_STYLE('Plastic - Translucent Glossy (Blue)',(#348));
#342=FILL_AREA_STYLE('Granite - Black and White',(#349));
#343=FILL_AREA_STYLE('Paint - Metallic (Silver)',(#350));
#344=FILL_AREA_STYLE_COLOUR('Steel - Satin',#351);
#345=FILL_AREA_STYLE_COLOUR('PEEK',#352);
#346=FILL_AREA_STYLE_COLOUR('Paek (Beige)',#353);
#347=FILL_AREA_STYLE_COLOUR('Paint - Metallic (Yellow)',#354);
#348=FILL_AREA_STYLE_COLOUR('Plastic - Translucent Glossy (Blue)',#355);
#349=FILL_AREA_STYLE_COLOUR('Granite - Black and White',#356);
#350=FILL_AREA_STYLE_COLOUR('Paint - Metallic (Silver)',#357);
#351=COLOUR_RGB('Steel - Satin',0.627450980392157,0.627450980392157,0.627450980392157);
#352=COLOUR_RGB('PEEK',0.6,0.509803921568627,0.368627450980392);
#353=COLOUR_RGB('Paek (Beige)',0.898039215686275,0.792156862745098,0.619607843137255);
#354=COLOUR_RGB('Paint - Metallic (Yellow)',0.909803921568627,0.67843137254902,
0.137254901960784);
#355=COLOUR_RGB('Plastic - Translucent Glossy (Blue)',0.188235294117647,
0.231372549019608,0.588235294117647);
#356=COLOUR_RGB('Granite - Black and White',0.,0.,0.);
#357=COLOUR_RGB('Paint - Metallic (Silver)',0.984313725490196,0.980392156862745,
0.96078431372549);
ENDSEC;
END-ISO-10303-21;
