ISO-10303-21;
HEADER;
/* Generated by software containing ST-Developer
 * from STEP Tools, Inc. (www.steptools.com) 
 */

FILE_DESCRIPTION(
/* description */ (''),
/* implementation_level */ '2;1');

FILE_NAME(
/* name */ 'Body88.step',
/* time_stamp */ '2026-09-03T17:15:06+01:00',
/* author */ (''),
/* organization */ (''),
/* preprocessor_version */ 'ST-DEVELOPER v20.1',
/* originating_system */ 'Autodesk Translation Framework v15.8.0.0',
/* authorisation */ '');

FILE_SCHEMA (('AUTOMOTIVE_DESIGN { 1 0 10303 214 3 1 1 }'));
ENDSEC;

DATA;
#10=MECHANICAL_DESIGN_GEOMETRIC_PRESENTATION_REPRESENTATION('',(#13,#14),
#1022);
#11=SHAPE_REPRESENTATION_RELATIONSHIP('SRR','None',#1029,#12);
#12=ADVANCED_BREP_SHAPE_REPRESENTATION('',(#15,#16),#1021);
#13=STYLED_ITEM('',(#1043),#15);
#14=STYLED_ITEM('',(#1043),#16);
#15=MANIFOLD_SOLID_BREP('Body88',#593);
#16=MANIFOLD_SOLID_BREP('Body88',#594);
#17=PLANE('',#620);
#18=PLANE('',#621);
#19=PLANE('',#628);
#20=PLANE('',#632);
#21=PLANE('',#633);
#22=PLANE('',#634);
#23=PLANE('',#635);
#24=PLANE('',#636);
#25=PLANE('',#640);
#26=PLANE('',#649);
#27=PLANE('',#650);
#28=PLANE('',#651);
#29=PLANE('',#654);
#30=PLANE('',#657);
#31=PLANE('',#660);
#32=PLANE('',#664);
#33=PLANE('',#665);
#34=PLANE('',#666);
#35=FACE_OUTER_BOUND('',#67,.T.);
#36=FACE_OUTER_BOUND('',#68,.T.);
#37=FACE_OUTER_BOUND('',#69,.T.);
#38=FACE_OUTER_BOUND('',#70,.T.);
#39=FACE_OUTER_BOUND('',#71,.T.);
#40=FACE_OUTER_BOUND('',#72,.T.);
#41=FACE_OUTER_BOUND('',#73,.T.);
#42=FACE_OUTER_BOUND('',#74,.T.);
#43=FACE_OUTER_BOUND('',#75,.T.);
#44=FACE_OUTER_BOUND('',#76,.T.);
#45=FACE_OUTER_BOUND('',#77,.T.);
#46=FACE_OUTER_BOUND('',#78,.T.);
#47=FACE_OUTER_BOUND('',#79,.T.);
#48=FACE_OUTER_BOUND('',#80,.T.);
#49=FACE_OUTER_BOUND('',#81,.T.);
#50=FACE_OUTER_BOUND('',#82,.T.);
#51=FACE_OUTER_BOUND('',#83,.T.);
#52=FACE_OUTER_BOUND('',#84,.T.);
#53=FACE_OUTER_BOUND('',#85,.T.);
#54=FACE_OUTER_BOUND('',#86,.T.);
#55=FACE_OUTER_BOUND('',#87,.T.);
#56=FACE_OUTER_BOUND('',#88,.T.);
#57=FACE_OUTER_BOUND('',#89,.T.);
#58=FACE_OUTER_BOUND('',#90,.T.);
#59=FACE_OUTER_BOUND('',#91,.T.);
#60=FACE_OUTER_BOUND('',#92,.T.);
#61=FACE_OUTER_BOUND('',#93,.T.);
#62=FACE_OUTER_BOUND('',#94,.T.);
#63=FACE_OUTER_BOUND('',#95,.T.);
#64=FACE_OUTER_BOUND('',#96,.T.);
#65=FACE_OUTER_BOUND('',#97,.T.);
#66=FACE_OUTER_BOUND('',#98,.T.);
#67=EDGE_LOOP('',(#379,#380,#381,#382));
#68=EDGE_LOOP('',(#383,#384,#385,#386));
#69=EDGE_LOOP('',(#387,#388,#389,#390));
#70=EDGE_LOOP('',(#391,#392,#393,#394));
#71=EDGE_LOOP('',(#395,#396,#397,#398));
#72=EDGE_LOOP('',(#399,#400,#401,#402));
#73=EDGE_LOOP('',(#403,#404,#405,#406));
#74=EDGE_LOOP('',(#407,#408,#409,#410));
#75=EDGE_LOOP('',(#411,#412,#413,#414));
#76=EDGE_LOOP('',(#415,#416,#417,#418));
#77=EDGE_LOOP('',(#419,#420,#421,#422));
#78=EDGE_LOOP('',(#423,#424,#425,#426));
#79=EDGE_LOOP('',(#427,#428,#429,#430));
#80=EDGE_LOOP('',(#431,#432,#433,#434));
#81=EDGE_LOOP('',(#435,#436,#437,#438));
#82=EDGE_LOOP('',(#439,#440,#441,#442));
#83=EDGE_LOOP('',(#443,#444,#445,#446,#447,#448,#449,#450,#451,#452,#453,
#454,#455,#456,#457,#458,#459,#460,#461,#462,#463,#464,#465));
#84=EDGE_LOOP('',(#466,#467,#468,#469));
#85=EDGE_LOOP('',(#470,#471,#472,#473));
#86=EDGE_LOOP('',(#474,#475,#476,#477));
#87=EDGE_LOOP('',(#478,#479,#480,#481));
#88=EDGE_LOOP('',(#482,#483,#484,#485));
#89=EDGE_LOOP('',(#486,#487,#488,#489));
#90=EDGE_LOOP('',(#490,#491,#492,#493,#494,#495,#496,#497,#498,#499,#500,
#501,#502,#503,#504,#505,#506,#507,#508,#509,#510,#511,#512));
#91=EDGE_LOOP('',(#513,#514,#515,#516));
#92=EDGE_LOOP('',(#517,#518,#519,#520,#521));
#93=EDGE_LOOP('',(#522,#523,#524,#525,#526));
#94=EDGE_LOOP('',(#527,#528,#529,#530));
#95=EDGE_LOOP('',(#531,#532,#533,#534));
#96=EDGE_LOOP('',(#535,#536,#537,#538));
#97=EDGE_LOOP('',(#539,#540,#541,#542));
#98=EDGE_LOOP('',(#543,#544,#545,#546));
#99=CIRCLE('',#609,0.250000033527622);
#100=CIRCLE('',#610,0.250000033527622);
#101=CIRCLE('',#612,0.124332458537028);
#102=CIRCLE('',#613,0.124332458537028);
#103=CIRCLE('',#615,0.124332458537028);
#104=CIRCLE('',#616,0.124332458537028);
#105=CIRCLE('',#618,0.125);
#106=CIRCLE('',#619,0.125);
#107=CIRCLE('',#623,0.125);
#108=CIRCLE('',#624,0.125);
#109=CIRCLE('',#626,0.125);
#110=CIRCLE('',#627,0.125);
#111=CIRCLE('',#630,0.125);
#112=CIRCLE('',#631,0.125);
#113=CIRCLE('',#638,0.25);
#114=CIRCLE('',#639,0.25);
#115=CIRCLE('',#641,0.125760599441813);
#116=CIRCLE('',#642,0.125000016763806);
#117=CIRCLE('',#643,0.125000016763806);
#118=CIRCLE('',#644,0.125760599441813);
#119=CIRCLE('',#646,0.125760599441813);
#120=CIRCLE('',#648,0.125000016763806);
#121=CIRCLE('',#653,0.125000016763806);
#122=CIRCLE('',#655,0.125760599441813);
#123=CIRCLE('',#658,0.125);
#124=CIRCLE('',#659,0.125);
#125=CIRCLE('',#661,0.125);
#126=CIRCLE('',#662,0.125);
#127=LINE('',#850,#183);
#128=LINE('',#854,#184);
#129=LINE('',#859,#185);
#130=LINE('',#863,#186);
#131=LINE('',#868,#187);
#132=LINE('',#872,#188);
#133=LINE('',#877,#189);
#134=LINE('',#881,#190);
#135=LINE('',#885,#191);
#136=LINE('',#887,#192);
#137=LINE('',#888,#193);
#138=LINE('',#891,#194);
#139=LINE('',#893,#195);
#140=LINE('',#894,#196);
#141=LINE('',#902,#197);
#142=LINE('',#906,#198);
#143=LINE('',#908,#199);
#144=LINE('',#909,#200);
#145=LINE('',#915,#201);
#146=LINE('',#918,#202);
#147=LINE('',#920,#203);
#148=LINE('',#921,#204);
#149=LINE('',#924,#205);
#150=LINE('',#926,#206);
#151=LINE('',#927,#207);
#152=LINE('',#930,#208);
#153=LINE('',#932,#209);
#154=LINE('',#933,#210);
#155=LINE('',#935,#211);
#156=LINE('',#936,#212);
#157=LINE('',#939,#213);
#158=LINE('',#941,#214);
#159=LINE('',#942,#215);
#160=LINE('',#952,#216);
#161=LINE('',#954,#217);
#162=LINE('',#956,#218);
#163=LINE('',#963,#219);
#164=LINE('',#967,#220);
#165=LINE('',#970,#221);
#166=LINE('',#971,#222);
#167=LINE('',#974,#223);
#168=LINE('',#975,#224);
#169=LINE('',#978,#225);
#170=LINE('',#979,#226);
#171=LINE('',#982,#227);
#172=LINE('',#992,#228);
#173=LINE('',#994,#229);
#174=LINE('',#996,#230);
#175=LINE('',#1005,#231);
#176=LINE('',#1007,#232);
#177=LINE('',#1008,#233);
#178=LINE('',#1010,#234);
#179=LINE('',#1011,#235);
#180=LINE('',#1013,#236);
#181=LINE('',#1014,#237);
#182=LINE('',#1016,#238);
#183=VECTOR('',#672,1.);
#184=VECTOR('',#675,1.);
#185=VECTOR('',#680,1.);
#186=VECTOR('',#683,1.);
#187=VECTOR('',#688,1.);
#188=VECTOR('',#691,1.);
#189=VECTOR('',#696,1.);
#190=VECTOR('',#699,1.);
#191=VECTOR('',#704,1.);
#192=VECTOR('',#705,1.);
#193=VECTOR('',#706,1.);
#194=VECTOR('',#709,1.);
#195=VECTOR('',#710,1.);
#196=VECTOR('',#711,1.);
#197=VECTOR('',#722,1.);
#198=VECTOR('',#727,1.);
#199=VECTOR('',#728,1.);
#200=VECTOR('',#729,1.);
#201=VECTOR('',#736,1.);
#202=VECTOR('',#739,1.);
#203=VECTOR('',#740,1.);
#204=VECTOR('',#741,1.);
#205=VECTOR('',#744,1.);
#206=VECTOR('',#745,1.);
#207=VECTOR('',#746,1.);
#208=VECTOR('',#749,1.);
#209=VECTOR('',#750,1.);
#210=VECTOR('',#751,1.);
#211=VECTOR('',#754,1.);
#212=VECTOR('',#755,1.);
#213=VECTOR('',#758,1.);
#214=VECTOR('',#759,1.);
#215=VECTOR('',#760,1.);
#216=VECTOR('',#773,1.);
#217=VECTOR('',#774,1.);
#218=VECTOR('',#775,1.);
#219=VECTOR('',#784,1.);
#220=VECTOR('',#789,1.);
#221=VECTOR('',#792,1.);
#222=VECTOR('',#793,1.);
#223=VECTOR('',#796,1.);
#224=VECTOR('',#797,1.);
#225=VECTOR('',#800,1.);
#226=VECTOR('',#801,1.);
#227=VECTOR('',#804,1.);
#228=VECTOR('',#817,1.);
#229=VECTOR('',#818,1.);
#230=VECTOR('',#819,1.);
#231=VECTOR('',#828,1.);
#232=VECTOR('',#829,1.);
#233=VECTOR('',#830,1.);
#234=VECTOR('',#833,1.);
#235=VECTOR('',#834,1.);
#236=VECTOR('',#837,1.);
#237=VECTOR('',#838,1.);
#238=VECTOR('',#841,1.);
#239=VERTEX_POINT('',#848);
#240=VERTEX_POINT('',#849);
#241=VERTEX_POINT('',#851);
#242=VERTEX_POINT('',#853);
#243=VERTEX_POINT('',#857);
#244=VERTEX_POINT('',#858);
#245=VERTEX_POINT('',#860);
#246=VERTEX_POINT('',#862);
#247=VERTEX_POINT('',#866);
#248=VERTEX_POINT('',#867);
#249=VERTEX_POINT('',#869);
#250=VERTEX_POINT('',#871);
#251=VERTEX_POINT('',#875);
#252=VERTEX_POINT('',#876);
#253=VERTEX_POINT('',#878);
#254=VERTEX_POINT('',#880);
#255=VERTEX_POINT('',#884);
#256=VERTEX_POINT('',#886);
#257=VERTEX_POINT('',#890);
#258=VERTEX_POINT('',#892);
#259=VERTEX_POINT('',#899);
#260=VERTEX_POINT('',#901);
#261=VERTEX_POINT('',#905);
#262=VERTEX_POINT('',#907);
#263=VERTEX_POINT('',#911);
#264=VERTEX_POINT('',#913);
#265=VERTEX_POINT('',#917);
#266=VERTEX_POINT('',#919);
#267=VERTEX_POINT('',#923);
#268=VERTEX_POINT('',#925);
#269=VERTEX_POINT('',#929);
#270=VERTEX_POINT('',#931);
#271=VERTEX_POINT('',#938);
#272=VERTEX_POINT('',#940);
#273=VERTEX_POINT('',#947);
#274=VERTEX_POINT('',#949);
#275=VERTEX_POINT('',#951);
#276=VERTEX_POINT('',#953);
#277=VERTEX_POINT('',#955);
#278=VERTEX_POINT('',#957);
#279=VERTEX_POINT('',#961);
#280=VERTEX_POINT('',#965);
#281=VERTEX_POINT('',#969);
#282=VERTEX_POINT('',#973);
#283=VERTEX_POINT('',#977);
#284=VERTEX_POINT('',#981);
#285=VERTEX_POINT('',#988);
#286=VERTEX_POINT('',#989);
#287=VERTEX_POINT('',#991);
#288=VERTEX_POINT('',#993);
#289=VERTEX_POINT('',#995);
#290=VERTEX_POINT('',#999);
#291=VERTEX_POINT('',#1000);
#292=VERTEX_POINT('',#1002);
#293=VERTEX_POINT('',#1004);
#294=VERTEX_POINT('',#1006);
#295=EDGE_CURVE('',#239,#240,#127,.T.);
#296=EDGE_CURVE('',#241,#240,#99,.T.);
#297=EDGE_CURVE('',#242,#241,#128,.T.);
#298=EDGE_CURVE('',#242,#239,#100,.T.);
#299=EDGE_CURVE('',#243,#244,#129,.T.);
#300=EDGE_CURVE('',#243,#245,#101,.T.);
#301=EDGE_CURVE('',#245,#246,#130,.T.);
#302=EDGE_CURVE('',#244,#246,#102,.T.);
#303=EDGE_CURVE('',#247,#248,#131,.T.);
#304=EDGE_CURVE('',#249,#247,#103,.T.);
#305=EDGE_CURVE('',#250,#249,#132,.T.);
#306=EDGE_CURVE('',#250,#248,#104,.T.);
#307=EDGE_CURVE('',#251,#252,#133,.T.);
#308=EDGE_CURVE('',#251,#253,#105,.T.);
#309=EDGE_CURVE('',#253,#254,#134,.T.);
#310=EDGE_CURVE('',#252,#254,#106,.T.);
#311=EDGE_CURVE('',#255,#239,#135,.T.);
#312=EDGE_CURVE('',#255,#256,#136,.T.);
#313=EDGE_CURVE('',#240,#256,#137,.T.);
#314=EDGE_CURVE('',#242,#257,#138,.T.);
#315=EDGE_CURVE('',#258,#241,#139,.T.);
#316=EDGE_CURVE('',#257,#258,#140,.T.);
#317=EDGE_CURVE('',#253,#257,#107,.T.);
#318=EDGE_CURVE('',#254,#258,#108,.T.);
#319=EDGE_CURVE('',#259,#252,#109,.T.);
#320=EDGE_CURVE('',#260,#259,#141,.T.);
#321=EDGE_CURVE('',#260,#251,#110,.T.);
#322=EDGE_CURVE('',#261,#260,#142,.T.);
#323=EDGE_CURVE('',#262,#259,#143,.T.);
#324=EDGE_CURVE('',#261,#262,#144,.T.);
#325=EDGE_CURVE('',#263,#261,#111,.T.);
#326=EDGE_CURVE('',#264,#262,#112,.T.);
#327=EDGE_CURVE('',#263,#264,#145,.T.);
#328=EDGE_CURVE('',#265,#263,#146,.T.);
#329=EDGE_CURVE('',#266,#264,#147,.T.);
#330=EDGE_CURVE('',#265,#266,#148,.T.);
#331=EDGE_CURVE('',#267,#265,#149,.T.);
#332=EDGE_CURVE('',#268,#266,#150,.T.);
#333=EDGE_CURVE('',#267,#268,#151,.T.);
#334=EDGE_CURVE('',#269,#267,#152,.T.);
#335=EDGE_CURVE('',#270,#268,#153,.T.);
#336=EDGE_CURVE('',#269,#270,#154,.T.);
#337=EDGE_CURVE('',#245,#269,#155,.T.);
#338=EDGE_CURVE('',#246,#270,#156,.T.);
#339=EDGE_CURVE('',#271,#250,#157,.T.);
#340=EDGE_CURVE('',#272,#249,#158,.T.);
#341=EDGE_CURVE('',#271,#272,#159,.T.);
#342=EDGE_CURVE('',#255,#271,#113,.T.);
#343=EDGE_CURVE('',#256,#272,#114,.T.);
#344=EDGE_CURVE('',#273,#243,#115,.T.);
#345=EDGE_CURVE('',#274,#273,#116,.T.);
#346=EDGE_CURVE('',#275,#274,#160,.T.);
#347=EDGE_CURVE('',#276,#275,#161,.T.);
#348=EDGE_CURVE('',#276,#277,#162,.T.);
#349=EDGE_CURVE('',#278,#277,#117,.T.);
#350=EDGE_CURVE('',#248,#278,#118,.T.);
#351=EDGE_CURVE('',#279,#244,#119,.T.);
#352=EDGE_CURVE('',#279,#273,#163,.T.);
#353=EDGE_CURVE('',#280,#279,#120,.T.);
#354=EDGE_CURVE('',#274,#280,#164,.T.);
#355=EDGE_CURVE('',#281,#280,#165,.T.);
#356=EDGE_CURVE('',#275,#281,#166,.T.);
#357=EDGE_CURVE('',#282,#281,#167,.T.);
#358=EDGE_CURVE('',#276,#282,#168,.T.);
#359=EDGE_CURVE('',#283,#282,#169,.T.);
#360=EDGE_CURVE('',#277,#283,#170,.T.);
#361=EDGE_CURVE('',#278,#284,#171,.T.);
#362=EDGE_CURVE('',#284,#283,#121,.T.);
#363=EDGE_CURVE('',#247,#284,#122,.T.);
#364=EDGE_CURVE('',#285,#286,#123,.T.);
#365=EDGE_CURVE('',#285,#287,#172,.T.);
#366=EDGE_CURVE('',#287,#288,#173,.T.);
#367=EDGE_CURVE('',#288,#289,#174,.T.);
#368=EDGE_CURVE('',#286,#289,#124,.T.);
#369=EDGE_CURVE('',#290,#291,#125,.T.);
#370=EDGE_CURVE('',#291,#292,#126,.T.);
#371=EDGE_CURVE('',#292,#293,#175,.T.);
#372=EDGE_CURVE('',#293,#294,#176,.T.);
#373=EDGE_CURVE('',#294,#290,#177,.T.);
#374=EDGE_CURVE('',#286,#291,#178,.T.);
#375=EDGE_CURVE('',#285,#290,#179,.T.);
#376=EDGE_CURVE('',#288,#293,#180,.T.);
#377=EDGE_CURVE('',#289,#292,#181,.T.);
#378=EDGE_CURVE('',#287,#294,#182,.T.);
#379=ORIENTED_EDGE('',*,*,#295,.T.);
#380=ORIENTED_EDGE('',*,*,#296,.F.);
#381=ORIENTED_EDGE('',*,*,#297,.F.);
#382=ORIENTED_EDGE('',*,*,#298,.T.);
#383=ORIENTED_EDGE('',*,*,#299,.F.);
#384=ORIENTED_EDGE('',*,*,#300,.T.);
#385=ORIENTED_EDGE('',*,*,#301,.T.);
#386=ORIENTED_EDGE('',*,*,#302,.F.);
#387=ORIENTED_EDGE('',*,*,#303,.F.);
#388=ORIENTED_EDGE('',*,*,#304,.F.);
#389=ORIENTED_EDGE('',*,*,#305,.F.);
#390=ORIENTED_EDGE('',*,*,#306,.T.);
#391=ORIENTED_EDGE('',*,*,#307,.F.);
#392=ORIENTED_EDGE('',*,*,#308,.T.);
#393=ORIENTED_EDGE('',*,*,#309,.T.);
#394=ORIENTED_EDGE('',*,*,#310,.F.);
#395=ORIENTED_EDGE('',*,*,#311,.F.);
#396=ORIENTED_EDGE('',*,*,#312,.T.);
#397=ORIENTED_EDGE('',*,*,#313,.F.);
#398=ORIENTED_EDGE('',*,*,#295,.F.);
#399=ORIENTED_EDGE('',*,*,#314,.F.);
#400=ORIENTED_EDGE('',*,*,#297,.T.);
#401=ORIENTED_EDGE('',*,*,#315,.F.);
#402=ORIENTED_EDGE('',*,*,#316,.F.);
#403=ORIENTED_EDGE('',*,*,#317,.T.);
#404=ORIENTED_EDGE('',*,*,#316,.T.);
#405=ORIENTED_EDGE('',*,*,#318,.F.);
#406=ORIENTED_EDGE('',*,*,#309,.F.);
#407=ORIENTED_EDGE('',*,*,#307,.T.);
#408=ORIENTED_EDGE('',*,*,#319,.F.);
#409=ORIENTED_EDGE('',*,*,#320,.F.);
#410=ORIENTED_EDGE('',*,*,#321,.T.);
#411=ORIENTED_EDGE('',*,*,#322,.T.);
#412=ORIENTED_EDGE('',*,*,#320,.T.);
#413=ORIENTED_EDGE('',*,*,#323,.F.);
#414=ORIENTED_EDGE('',*,*,#324,.F.);
#415=ORIENTED_EDGE('',*,*,#325,.T.);
#416=ORIENTED_EDGE('',*,*,#324,.T.);
#417=ORIENTED_EDGE('',*,*,#326,.F.);
#418=ORIENTED_EDGE('',*,*,#327,.F.);
#419=ORIENTED_EDGE('',*,*,#328,.T.);
#420=ORIENTED_EDGE('',*,*,#327,.T.);
#421=ORIENTED_EDGE('',*,*,#329,.F.);
#422=ORIENTED_EDGE('',*,*,#330,.F.);
#423=ORIENTED_EDGE('',*,*,#331,.T.);
#424=ORIENTED_EDGE('',*,*,#330,.T.);
#425=ORIENTED_EDGE('',*,*,#332,.F.);
#426=ORIENTED_EDGE('',*,*,#333,.F.);
#427=ORIENTED_EDGE('',*,*,#334,.T.);
#428=ORIENTED_EDGE('',*,*,#333,.T.);
#429=ORIENTED_EDGE('',*,*,#335,.F.);
#430=ORIENTED_EDGE('',*,*,#336,.F.);
#431=ORIENTED_EDGE('',*,*,#337,.T.);
#432=ORIENTED_EDGE('',*,*,#336,.T.);
#433=ORIENTED_EDGE('',*,*,#338,.F.);
#434=ORIENTED_EDGE('',*,*,#301,.F.);
#435=ORIENTED_EDGE('',*,*,#339,.T.);
#436=ORIENTED_EDGE('',*,*,#305,.T.);
#437=ORIENTED_EDGE('',*,*,#340,.F.);
#438=ORIENTED_EDGE('',*,*,#341,.F.);
#439=ORIENTED_EDGE('',*,*,#342,.T.);
#440=ORIENTED_EDGE('',*,*,#341,.T.);
#441=ORIENTED_EDGE('',*,*,#343,.F.);
#442=ORIENTED_EDGE('',*,*,#312,.F.);
#443=ORIENTED_EDGE('',*,*,#344,.F.);
#444=ORIENTED_EDGE('',*,*,#345,.F.);
#445=ORIENTED_EDGE('',*,*,#346,.F.);
#446=ORIENTED_EDGE('',*,*,#347,.F.);
#447=ORIENTED_EDGE('',*,*,#348,.T.);
#448=ORIENTED_EDGE('',*,*,#349,.F.);
#449=ORIENTED_EDGE('',*,*,#350,.F.);
#450=ORIENTED_EDGE('',*,*,#306,.F.);
#451=ORIENTED_EDGE('',*,*,#339,.F.);
#452=ORIENTED_EDGE('',*,*,#342,.F.);
#453=ORIENTED_EDGE('',*,*,#311,.T.);
#454=ORIENTED_EDGE('',*,*,#298,.F.);
#455=ORIENTED_EDGE('',*,*,#314,.T.);
#456=ORIENTED_EDGE('',*,*,#317,.F.);
#457=ORIENTED_EDGE('',*,*,#308,.F.);
#458=ORIENTED_EDGE('',*,*,#321,.F.);
#459=ORIENTED_EDGE('',*,*,#322,.F.);
#460=ORIENTED_EDGE('',*,*,#325,.F.);
#461=ORIENTED_EDGE('',*,*,#328,.F.);
#462=ORIENTED_EDGE('',*,*,#331,.F.);
#463=ORIENTED_EDGE('',*,*,#334,.F.);
#464=ORIENTED_EDGE('',*,*,#337,.F.);
#465=ORIENTED_EDGE('',*,*,#300,.F.);
#466=ORIENTED_EDGE('',*,*,#299,.T.);
#467=ORIENTED_EDGE('',*,*,#351,.F.);
#468=ORIENTED_EDGE('',*,*,#352,.T.);
#469=ORIENTED_EDGE('',*,*,#344,.T.);
#470=ORIENTED_EDGE('',*,*,#352,.F.);
#471=ORIENTED_EDGE('',*,*,#353,.F.);
#472=ORIENTED_EDGE('',*,*,#354,.F.);
#473=ORIENTED_EDGE('',*,*,#345,.T.);
#474=ORIENTED_EDGE('',*,*,#346,.T.);
#475=ORIENTED_EDGE('',*,*,#354,.T.);
#476=ORIENTED_EDGE('',*,*,#355,.F.);
#477=ORIENTED_EDGE('',*,*,#356,.F.);
#478=ORIENTED_EDGE('',*,*,#347,.T.);
#479=ORIENTED_EDGE('',*,*,#356,.T.);
#480=ORIENTED_EDGE('',*,*,#357,.F.);
#481=ORIENTED_EDGE('',*,*,#358,.F.);
#482=ORIENTED_EDGE('',*,*,#348,.F.);
#483=ORIENTED_EDGE('',*,*,#358,.T.);
#484=ORIENTED_EDGE('',*,*,#359,.F.);
#485=ORIENTED_EDGE('',*,*,#360,.F.);
#486=ORIENTED_EDGE('',*,*,#361,.F.);
#487=ORIENTED_EDGE('',*,*,#349,.T.);
#488=ORIENTED_EDGE('',*,*,#360,.T.);
#489=ORIENTED_EDGE('',*,*,#362,.F.);
#490=ORIENTED_EDGE('',*,*,#363,.T.);
#491=ORIENTED_EDGE('',*,*,#362,.T.);
#492=ORIENTED_EDGE('',*,*,#359,.T.);
#493=ORIENTED_EDGE('',*,*,#357,.T.);
#494=ORIENTED_EDGE('',*,*,#355,.T.);
#495=ORIENTED_EDGE('',*,*,#353,.T.);
#496=ORIENTED_EDGE('',*,*,#351,.T.);
#497=ORIENTED_EDGE('',*,*,#302,.T.);
#498=ORIENTED_EDGE('',*,*,#338,.T.);
#499=ORIENTED_EDGE('',*,*,#335,.T.);
#500=ORIENTED_EDGE('',*,*,#332,.T.);
#501=ORIENTED_EDGE('',*,*,#329,.T.);
#502=ORIENTED_EDGE('',*,*,#326,.T.);
#503=ORIENTED_EDGE('',*,*,#323,.T.);
#504=ORIENTED_EDGE('',*,*,#319,.T.);
#505=ORIENTED_EDGE('',*,*,#310,.T.);
#506=ORIENTED_EDGE('',*,*,#318,.T.);
#507=ORIENTED_EDGE('',*,*,#315,.T.);
#508=ORIENTED_EDGE('',*,*,#296,.T.);
#509=ORIENTED_EDGE('',*,*,#313,.T.);
#510=ORIENTED_EDGE('',*,*,#343,.T.);
#511=ORIENTED_EDGE('',*,*,#340,.T.);
#512=ORIENTED_EDGE('',*,*,#304,.T.);
#513=ORIENTED_EDGE('',*,*,#303,.T.);
#514=ORIENTED_EDGE('',*,*,#350,.T.);
#515=ORIENTED_EDGE('',*,*,#361,.T.);
#516=ORIENTED_EDGE('',*,*,#363,.F.);
#517=ORIENTED_EDGE('',*,*,#364,.F.);
#518=ORIENTED_EDGE('',*,*,#365,.T.);
#519=ORIENTED_EDGE('',*,*,#366,.T.);
#520=ORIENTED_EDGE('',*,*,#367,.T.);
#521=ORIENTED_EDGE('',*,*,#368,.F.);
#522=ORIENTED_EDGE('',*,*,#369,.T.);
#523=ORIENTED_EDGE('',*,*,#370,.T.);
#524=ORIENTED_EDGE('',*,*,#371,.T.);
#525=ORIENTED_EDGE('',*,*,#372,.T.);
#526=ORIENTED_EDGE('',*,*,#373,.T.);
#527=ORIENTED_EDGE('',*,*,#374,.T.);
#528=ORIENTED_EDGE('',*,*,#369,.F.);
#529=ORIENTED_EDGE('',*,*,#375,.F.);
#530=ORIENTED_EDGE('',*,*,#364,.T.);
#531=ORIENTED_EDGE('',*,*,#367,.F.);
#532=ORIENTED_EDGE('',*,*,#376,.T.);
#533=ORIENTED_EDGE('',*,*,#371,.F.);
#534=ORIENTED_EDGE('',*,*,#377,.F.);
#535=ORIENTED_EDGE('',*,*,#366,.F.);
#536=ORIENTED_EDGE('',*,*,#378,.T.);
#537=ORIENTED_EDGE('',*,*,#372,.F.);
#538=ORIENTED_EDGE('',*,*,#376,.F.);
#539=ORIENTED_EDGE('',*,*,#365,.F.);
#540=ORIENTED_EDGE('',*,*,#375,.T.);
#541=ORIENTED_EDGE('',*,*,#373,.F.);
#542=ORIENTED_EDGE('',*,*,#378,.F.);
#543=ORIENTED_EDGE('',*,*,#374,.F.);
#544=ORIENTED_EDGE('',*,*,#368,.T.);
#545=ORIENTED_EDGE('',*,*,#377,.T.);
#546=ORIENTED_EDGE('',*,*,#370,.F.);
#547=CYLINDRICAL_SURFACE('',#608,0.250000033527622);
#548=CYLINDRICAL_SURFACE('',#611,0.124332458537028);
#549=CYLINDRICAL_SURFACE('',#614,0.124332458537028);
#550=CYLINDRICAL_SURFACE('',#617,0.125);
#551=CYLINDRICAL_SURFACE('',#622,0.125);
#552=CYLINDRICAL_SURFACE('',#625,0.125);
#553=CYLINDRICAL_SURFACE('',#629,0.125);
#554=CYLINDRICAL_SURFACE('',#637,0.25);
#555=CYLINDRICAL_SURFACE('',#645,0.125760599441813);
#556=CYLINDRICAL_SURFACE('',#647,0.125000016763806);
#557=CYLINDRICAL_SURFACE('',#652,0.125000016763806);
#558=CYLINDRICAL_SURFACE('',#656,0.125760599441813);
#559=CYLINDRICAL_SURFACE('',#663,0.125);
#560=CYLINDRICAL_SURFACE('',#667,0.125);
#561=ADVANCED_FACE('',(#35),#547,.T.);
#562=ADVANCED_FACE('',(#36),#548,.T.);
#563=ADVANCED_FACE('',(#37),#549,.T.);
#564=ADVANCED_FACE('',(#38),#550,.T.);
#565=ADVANCED_FACE('',(#39),#17,.T.);
#566=ADVANCED_FACE('',(#40),#18,.T.);
#567=ADVANCED_FACE('',(#41),#551,.T.);
#568=ADVANCED_FACE('',(#42),#552,.T.);
#569=ADVANCED_FACE('',(#43),#19,.T.);
#570=ADVANCED_FACE('',(#44),#553,.T.);
#571=ADVANCED_FACE('',(#45),#20,.T.);
#572=ADVANCED_FACE('',(#46),#21,.T.);
#573=ADVANCED_FACE('',(#47),#22,.T.);
#574=ADVANCED_FACE('',(#48),#23,.T.);
#575=ADVANCED_FACE('',(#49),#24,.T.);
#576=ADVANCED_FACE('',(#50),#554,.T.);
#577=ADVANCED_FACE('',(#51),#25,.F.);
#578=ADVANCED_FACE('',(#52),#555,.T.);
#579=ADVANCED_FACE('',(#53),#556,.T.);
#580=ADVANCED_FACE('',(#54),#26,.T.);
#581=ADVANCED_FACE('',(#55),#27,.T.);
#582=ADVANCED_FACE('',(#56),#28,.T.);
#583=ADVANCED_FACE('',(#57),#557,.T.);
#584=ADVANCED_FACE('',(#58),#29,.T.);
#585=ADVANCED_FACE('',(#59),#558,.T.);
#586=ADVANCED_FACE('',(#60),#30,.F.);
#587=ADVANCED_FACE('',(#61),#31,.T.);
#588=ADVANCED_FACE('',(#62),#559,.T.);
#589=ADVANCED_FACE('',(#63),#32,.T.);
#590=ADVANCED_FACE('',(#64),#33,.T.);
#591=ADVANCED_FACE('',(#65),#34,.T.);
#592=ADVANCED_FACE('',(#66),#560,.T.);
#593=CLOSED_SHELL('',(#561,#562,#563,#564,#565,#566,#567,#568,#569,#570,
#571,#572,#573,#574,#575,#576,#577,#578,#579,#580,#581,#582,#583,#584,#585));
#594=CLOSED_SHELL('',(#586,#587,#588,#589,#590,#591,#592));
#595=DERIVED_UNIT_ELEMENT(#597,1.);
#596=DERIVED_UNIT_ELEMENT(#1024,-3.);
#597=(
MASS_UNIT()
NAMED_UNIT(*)
SI_UNIT(.KILO.,.GRAM.)
);
#598=DERIVED_UNIT((#595,#596));
#599=MEASURE_REPRESENTATION_ITEM('density measure',
POSITIVE_RATIO_MEASURE(7850.),#598);
#600=PROPERTY_DEFINITION_REPRESENTATION(#605,#602);
#601=PROPERTY_DEFINITION_REPRESENTATION(#606,#603);
#602=REPRESENTATION('material name',(#604),#1021);
#603=REPRESENTATION('density',(#599),#1021);
#604=DESCRIPTIVE_REPRESENTATION_ITEM('Steel','Steel');
#605=PROPERTY_DEFINITION('material property','material name',#1031);
#606=PROPERTY_DEFINITION('material property','density of part',#1031);
#607=AXIS2_PLACEMENT_3D('',#846,#668,#669);
#608=AXIS2_PLACEMENT_3D('',#847,#670,#671);
#609=AXIS2_PLACEMENT_3D('',#852,#673,#674);
#610=AXIS2_PLACEMENT_3D('',#855,#676,#677);
#611=AXIS2_PLACEMENT_3D('',#856,#678,#679);
#612=AXIS2_PLACEMENT_3D('',#861,#681,#682);
#613=AXIS2_PLACEMENT_3D('',#864,#684,#685);
#614=AXIS2_PLACEMENT_3D('',#865,#686,#687);
#615=AXIS2_PLACEMENT_3D('',#870,#689,#690);
#616=AXIS2_PLACEMENT_3D('',#873,#692,#693);
#617=AXIS2_PLACEMENT_3D('',#874,#694,#695);
#618=AXIS2_PLACEMENT_3D('',#879,#697,#698);
#619=AXIS2_PLACEMENT_3D('',#882,#700,#701);
#620=AXIS2_PLACEMENT_3D('',#883,#702,#703);
#621=AXIS2_PLACEMENT_3D('',#889,#707,#708);
#622=AXIS2_PLACEMENT_3D('',#895,#712,#713);
#623=AXIS2_PLACEMENT_3D('',#896,#714,#715);
#624=AXIS2_PLACEMENT_3D('',#897,#716,#717);
#625=AXIS2_PLACEMENT_3D('',#898,#718,#719);
#626=AXIS2_PLACEMENT_3D('',#900,#720,#721);
#627=AXIS2_PLACEMENT_3D('',#903,#723,#724);
#628=AXIS2_PLACEMENT_3D('',#904,#725,#726);
#629=AXIS2_PLACEMENT_3D('',#910,#730,#731);
#630=AXIS2_PLACEMENT_3D('',#912,#732,#733);
#631=AXIS2_PLACEMENT_3D('',#914,#734,#735);
#632=AXIS2_PLACEMENT_3D('',#916,#737,#738);
#633=AXIS2_PLACEMENT_3D('',#922,#742,#743);
#634=AXIS2_PLACEMENT_3D('',#928,#747,#748);
#635=AXIS2_PLACEMENT_3D('',#934,#752,#753);
#636=AXIS2_PLACEMENT_3D('',#937,#756,#757);
#637=AXIS2_PLACEMENT_3D('',#943,#761,#762);
#638=AXIS2_PLACEMENT_3D('',#944,#763,#764);
#639=AXIS2_PLACEMENT_3D('',#945,#765,#766);
#640=AXIS2_PLACEMENT_3D('',#946,#767,#768);
#641=AXIS2_PLACEMENT_3D('',#948,#769,#770);
#642=AXIS2_PLACEMENT_3D('',#950,#771,#772);
#643=AXIS2_PLACEMENT_3D('',#958,#776,#777);
#644=AXIS2_PLACEMENT_3D('',#959,#778,#779);
#645=AXIS2_PLACEMENT_3D('',#960,#780,#781);
#646=AXIS2_PLACEMENT_3D('',#962,#782,#783);
#647=AXIS2_PLACEMENT_3D('',#964,#785,#786);
#648=AXIS2_PLACEMENT_3D('',#966,#787,#788);
#649=AXIS2_PLACEMENT_3D('',#968,#790,#791);
#650=AXIS2_PLACEMENT_3D('',#972,#794,#795);
#651=AXIS2_PLACEMENT_3D('',#976,#798,#799);
#652=AXIS2_PLACEMENT_3D('',#980,#802,#803);
#653=AXIS2_PLACEMENT_3D('',#983,#805,#806);
#654=AXIS2_PLACEMENT_3D('',#984,#807,#808);
#655=AXIS2_PLACEMENT_3D('',#985,#809,#810);
#656=AXIS2_PLACEMENT_3D('',#986,#811,#812);
#657=AXIS2_PLACEMENT_3D('',#987,#813,#814);
#658=AXIS2_PLACEMENT_3D('',#990,#815,#816);
#659=AXIS2_PLACEMENT_3D('',#997,#820,#821);
#660=AXIS2_PLACEMENT_3D('',#998,#822,#823);
#661=AXIS2_PLACEMENT_3D('',#1001,#824,#825);
#662=AXIS2_PLACEMENT_3D('',#1003,#826,#827);
#663=AXIS2_PLACEMENT_3D('',#1009,#831,#832);
#664=AXIS2_PLACEMENT_3D('',#1012,#835,#836);
#665=AXIS2_PLACEMENT_3D('',#1015,#839,#840);
#666=AXIS2_PLACEMENT_3D('',#1017,#842,#843);
#667=AXIS2_PLACEMENT_3D('',#1018,#844,#845);
#668=DIRECTION('axis',(0.,0.,1.));
#669=DIRECTION('refdir',(1.,0.,0.));
#670=DIRECTION('center_axis',(0.,-1.,0.));
#671=DIRECTION('ref_axis',(1.,0.,0.));
#672=DIRECTION('',(0.,-1.,0.));
#673=DIRECTION('center_axis',(0.,-1.,0.));
#674=DIRECTION('ref_axis',(1.,0.,0.));
#675=DIRECTION('',(0.,-1.,0.));
#676=DIRECTION('center_axis',(0.,-1.,0.));
#677=DIRECTION('ref_axis',(1.,0.,0.));
#678=DIRECTION('center_axis',(0.,-1.,0.));
#679=DIRECTION('ref_axis',(1.,0.,0.));
#680=DIRECTION('',(0.,-1.,0.));
#681=DIRECTION('center_axis',(0.,-1.,0.));
#682=DIRECTION('ref_axis',(1.,0.,0.));
#683=DIRECTION('',(0.,-1.,0.));
#684=DIRECTION('center_axis',(0.,-1.,0.));
#685=DIRECTION('ref_axis',(1.,0.,0.));
#686=DIRECTION('center_axis',(0.,-1.,0.));
#687=DIRECTION('ref_axis',(-0.715849823434557,0.,-0.698254273376622));
#688=DIRECTION('',(0.,1.,0.));
#689=DIRECTION('center_axis',(0.,-1.,0.));
#690=DIRECTION('ref_axis',(1.,0.,0.));
#691=DIRECTION('',(0.,-1.,0.));
#692=DIRECTION('center_axis',(0.,-1.,0.));
#693=DIRECTION('ref_axis',(1.,0.,0.));
#694=DIRECTION('center_axis',(0.,-1.,0.));
#695=DIRECTION('ref_axis',(1.,0.,0.));
#696=DIRECTION('',(0.,-1.,0.));
#697=DIRECTION('center_axis',(0.,-1.,0.));
#698=DIRECTION('ref_axis',(1.,0.,0.));
#699=DIRECTION('',(0.,-1.,0.));
#700=DIRECTION('center_axis',(0.,-1.,0.));
#701=DIRECTION('ref_axis',(1.,0.,0.));
#702=DIRECTION('center_axis',(0.,0.,1.));
#703=DIRECTION('ref_axis',(-1.,0.,0.));
#704=DIRECTION('',(1.,0.,0.));
#705=DIRECTION('',(0.,-1.,0.));
#706=DIRECTION('',(-1.,0.,0.));
#707=DIRECTION('center_axis',(1.,0.,0.));
#708=DIRECTION('ref_axis',(0.,0.,1.));
#709=DIRECTION('',(0.,0.,-1.));
#710=DIRECTION('',(0.,0.,1.));
#711=DIRECTION('',(0.,-1.,0.));
#712=DIRECTION('center_axis',(0.,-1.,0.));
#713=DIRECTION('ref_axis',(1.,0.,0.));
#714=DIRECTION('center_axis',(0.,-1.,0.));
#715=DIRECTION('ref_axis',(1.,0.,0.));
#716=DIRECTION('center_axis',(0.,-1.,0.));
#717=DIRECTION('ref_axis',(1.,0.,0.));
#718=DIRECTION('center_axis',(0.,-1.,0.));
#719=DIRECTION('ref_axis',(-0.999878986560439,0.,-0.0155567424247028));
#720=DIRECTION('center_axis',(0.,-1.,0.));
#721=DIRECTION('ref_axis',(1.,0.,0.));
#722=DIRECTION('',(0.,-1.,0.));
#723=DIRECTION('center_axis',(0.,-1.,0.));
#724=DIRECTION('ref_axis',(1.,0.,0.));
#725=DIRECTION('center_axis',(-0.0155567424247592,0.,0.999878986560439));
#726=DIRECTION('ref_axis',(-0.999878986560439,0.,-0.0155567424247592));
#727=DIRECTION('',(-0.999878986560439,0.,-0.0155567424247592));
#728=DIRECTION('',(-0.999878986560439,0.,-0.0155567424247592));
#729=DIRECTION('',(0.,-1.,0.));
#730=DIRECTION('center_axis',(0.,-1.,0.));
#731=DIRECTION('ref_axis',(1.,0.,0.));
#732=DIRECTION('center_axis',(0.,-1.,0.));
#733=DIRECTION('ref_axis',(1.,0.,0.));
#734=DIRECTION('center_axis',(0.,-1.,0.));
#735=DIRECTION('ref_axis',(1.,0.,0.));
#736=DIRECTION('',(0.,-1.,0.));
#737=DIRECTION('center_axis',(-1.,0.,0.));
#738=DIRECTION('ref_axis',(0.,0.,-1.));
#739=DIRECTION('',(0.,0.,-1.));
#740=DIRECTION('',(0.,0.,-1.));
#741=DIRECTION('',(0.,-1.,0.));
#742=DIRECTION('center_axis',(0.,0.,-1.));
#743=DIRECTION('ref_axis',(1.,0.,0.));
#744=DIRECTION('',(1.,0.,0.));
#745=DIRECTION('',(1.,0.,0.));
#746=DIRECTION('',(0.,-1.,0.));
#747=DIRECTION('center_axis',(1.,0.,0.));
#748=DIRECTION('ref_axis',(0.,0.,1.));
#749=DIRECTION('',(0.,0.,1.));
#750=DIRECTION('',(0.,0.,1.));
#751=DIRECTION('',(0.,-1.,0.));
#752=DIRECTION('center_axis',(0.,0.,-1.));
#753=DIRECTION('ref_axis',(1.,0.,0.));
#754=DIRECTION('',(1.,0.,0.));
#755=DIRECTION('',(1.,0.,0.));
#756=DIRECTION('center_axis',(-1.,0.,0.));
#757=DIRECTION('ref_axis',(0.,0.,-1.));
#758=DIRECTION('',(0.,0.,-1.));
#759=DIRECTION('',(0.,0.,-1.));
#760=DIRECTION('',(0.,-1.,0.));
#761=DIRECTION('center_axis',(0.,-1.,0.));
#762=DIRECTION('ref_axis',(-1.,0.,1.22464679914735E-16));
#763=DIRECTION('center_axis',(0.,-1.,0.));
#764=DIRECTION('ref_axis',(1.,0.,0.));
#765=DIRECTION('center_axis',(0.,-1.,0.));
#766=DIRECTION('ref_axis',(1.,0.,0.));
#767=DIRECTION('center_axis',(0.,-1.,0.));
#768=DIRECTION('ref_axis',(1.,0.,0.));
#769=DIRECTION('center_axis',(0.,-1.,0.));
#770=DIRECTION('ref_axis',(1.,0.,0.));
#771=DIRECTION('center_axis',(0.,-1.,0.));
#772=DIRECTION('ref_axis',(1.,0.,0.));
#773=DIRECTION('',(0.,0.,1.));
#774=DIRECTION('',(1.,0.,0.));
#775=DIRECTION('',(0.,0.,1.));
#776=DIRECTION('center_axis',(0.,-1.,0.));
#777=DIRECTION('ref_axis',(1.,0.,0.));
#778=DIRECTION('center_axis',(0.,-1.,0.));
#779=DIRECTION('ref_axis',(1.,0.,0.));
#780=DIRECTION('center_axis',(0.,-1.,0.));
#781=DIRECTION('ref_axis',(1.,0.,0.));
#782=DIRECTION('center_axis',(0.,-1.,0.));
#783=DIRECTION('ref_axis',(1.,0.,0.));
#784=DIRECTION('',(0.,1.,0.));
#785=DIRECTION('center_axis',(0.,-1.,0.));
#786=DIRECTION('ref_axis',(1.,0.,0.));
#787=DIRECTION('center_axis',(0.,-1.,0.));
#788=DIRECTION('ref_axis',(1.,0.,0.));
#789=DIRECTION('',(0.,-1.,0.));
#790=DIRECTION('center_axis',(1.,0.,0.));
#791=DIRECTION('ref_axis',(0.,0.,1.));
#792=DIRECTION('',(0.,0.,1.));
#793=DIRECTION('',(0.,-1.,0.));
#794=DIRECTION('center_axis',(0.,0.,-1.));
#795=DIRECTION('ref_axis',(1.,0.,0.));
#796=DIRECTION('',(1.,0.,0.));
#797=DIRECTION('',(0.,-1.,0.));
#798=DIRECTION('center_axis',(-1.,0.,0.));
#799=DIRECTION('ref_axis',(0.,0.,-1.));
#800=DIRECTION('',(0.,0.,-1.));
#801=DIRECTION('',(0.,-1.,0.));
#802=DIRECTION('center_axis',(0.,-1.,0.));
#803=DIRECTION('ref_axis',(1.,0.,0.));
#804=DIRECTION('',(0.,-1.,0.));
#805=DIRECTION('center_axis',(0.,-1.,0.));
#806=DIRECTION('ref_axis',(1.,0.,0.));
#807=DIRECTION('center_axis',(0.,-1.,0.));
#808=DIRECTION('ref_axis',(1.,0.,0.));
#809=DIRECTION('center_axis',(0.,-1.,0.));
#810=DIRECTION('ref_axis',(1.,0.,0.));
#811=DIRECTION('center_axis',(0.,-1.,0.));
#812=DIRECTION('ref_axis',(-0.99971473252764,0.,0.0238841698032016));
#813=DIRECTION('center_axis',(0.,-1.,0.));
#814=DIRECTION('ref_axis',(1.,0.,0.));
#815=DIRECTION('center_axis',(0.,-1.,0.));
#816=DIRECTION('ref_axis',(1.,0.,0.));
#817=DIRECTION('',(0.,0.,-1.));
#818=DIRECTION('',(-1.,0.,0.));
#819=DIRECTION('',(0.,0.,1.));
#820=DIRECTION('center_axis',(0.,-1.,0.));
#821=DIRECTION('ref_axis',(1.,0.,0.));
#822=DIRECTION('center_axis',(0.,-1.,0.));
#823=DIRECTION('ref_axis',(1.,0.,0.));
#824=DIRECTION('center_axis',(0.,-1.,0.));
#825=DIRECTION('ref_axis',(1.,0.,0.));
#826=DIRECTION('center_axis',(0.,-1.,0.));
#827=DIRECTION('ref_axis',(1.,0.,0.));
#828=DIRECTION('',(0.,0.,-1.));
#829=DIRECTION('',(1.,0.,0.));
#830=DIRECTION('',(0.,0.,1.));
#831=DIRECTION('center_axis',(0.,-1.,0.));
#832=DIRECTION('ref_axis',(1.,0.,0.));
#833=DIRECTION('',(0.,-1.,0.));
#834=DIRECTION('',(0.,-1.,0.));
#835=DIRECTION('center_axis',(-1.,0.,0.));
#836=DIRECTION('ref_axis',(0.,0.,-1.));
#837=DIRECTION('',(0.,-1.,0.));
#838=DIRECTION('',(0.,-1.,0.));
#839=DIRECTION('center_axis',(0.,0.,-1.));
#840=DIRECTION('ref_axis',(1.,0.,0.));
#841=DIRECTION('',(0.,-1.,0.));
#842=DIRECTION('center_axis',(1.,0.,0.));
#843=DIRECTION('ref_axis',(0.,0.,1.));
#844=DIRECTION('center_axis',(0.,-1.,0.));
#845=DIRECTION('ref_axis',(1.,0.,0.));
#846=CARTESIAN_POINT('',(0.,0.,0.));
#847=CARTESIAN_POINT('Origin',(9.00000006705523,0.500000007450581,4.25000003352761));
#848=CARTESIAN_POINT('',(9.00010578305701,0.500000007450581,4.50000004470349));
#849=CARTESIAN_POINT('',(9.00010578305701,-3.49999999254942,4.50000004470349));
#850=CARTESIAN_POINT('',(9.00010578305701,0.500000007450581,4.50000004470349));
#851=CARTESIAN_POINT('',(9.,-3.49999999254942,4.));
#852=CARTESIAN_POINT('Origin',(9.00000006705523,-3.49999999254942,4.25000003352761));
#853=CARTESIAN_POINT('',(9.,0.500000007450581,4.));
#854=CARTESIAN_POINT('',(9.,0.500000007450581,4.));
#855=CARTESIAN_POINT('Origin',(9.00000006705523,0.500000007450581,4.25000003352761));
#856=CARTESIAN_POINT('Origin',(2.12433245852486,0.500000007450581,3.74999828636915));
#857=CARTESIAN_POINT('',(2.12808876655686,0.500000007450581,3.62572258320948));
#858=CARTESIAN_POINT('',(2.12808876655686,-3.49999999254942,3.62572258320948));
#859=CARTESIAN_POINT('',(2.12808876655686,0.500000007450581,3.62572258320948));
#860=CARTESIAN_POINT('',(2.24866491704971,0.500000007450581,3.75000002607703));
#861=CARTESIAN_POINT('Origin',(2.12433245852486,0.500000007450581,3.74999828636915));
#862=CARTESIAN_POINT('',(2.24866491704971,-3.49999999254942,3.75000002607703));
#863=CARTESIAN_POINT('',(2.24866491704971,0.500000007450581,3.75000002607703));
#864=CARTESIAN_POINT('Origin',(2.12433245852486,-3.49999999254942,3.74999828636915));
#865=CARTESIAN_POINT('Origin',(2.12433245852486,0.500000007450581,3.74999828636915));
#866=CARTESIAN_POINT('',(2.12123982992666,-3.49999999254942,3.62570429659404));
#867=CARTESIAN_POINT('',(2.12123982992666,0.500000007450581,3.62570429659404));
#868=CARTESIAN_POINT('',(2.12123982992666,0.500000007450581,3.62570429659404));
#869=CARTESIAN_POINT('',(2.,-3.49999999254942,3.7499992907834));
#870=CARTESIAN_POINT('Origin',(2.12433245852486,-3.49999999254942,3.74999828636915));
#871=CARTESIAN_POINT('',(2.,0.500000007450581,3.7499992907834));
#872=CARTESIAN_POINT('',(2.,0.500000007450581,3.7499992907834));
#873=CARTESIAN_POINT('Origin',(2.12433245852486,0.500000007450581,3.74999828636915));
#874=CARTESIAN_POINT('Origin',(8.875,0.500000007450581,3.50000005215406));
#875=CARTESIAN_POINT('',(8.875,0.500000007450581,3.37500005215406));
#876=CARTESIAN_POINT('',(8.875,-3.49999999254942,3.37500005215406));
#877=CARTESIAN_POINT('',(8.875,0.500000007450581,3.37500005215406));
#878=CARTESIAN_POINT('',(8.87503296275355,0.500000007450581,3.6250000304232));
#879=CARTESIAN_POINT('Origin',(8.875,0.500000007450581,3.50000005215406));
#880=CARTESIAN_POINT('',(8.87503296275355,-3.49999999254942,3.6250000304232));
#881=CARTESIAN_POINT('',(8.87503296275355,0.500000007450581,3.6250000304232));
#882=CARTESIAN_POINT('Origin',(8.875,-3.49999999254942,3.50000005215406));
#883=CARTESIAN_POINT('Origin',(9.00010578305701,0.500000007450581,4.5));
#884=CARTESIAN_POINT('',(2.,0.500000007450581,4.5));
#885=CARTESIAN_POINT('',(1.50000002235174,0.500000007450581,4.5));
#886=CARTESIAN_POINT('',(2.,-3.49999999254942,4.5));
#887=CARTESIAN_POINT('',(2.,0.500000007450581,4.5));
#888=CARTESIAN_POINT('',(1.50000002235174,-3.49999999254942,4.5));
#889=CARTESIAN_POINT('Origin',(9.,0.500000007450581,3.75000002607703));
#890=CARTESIAN_POINT('',(9.,0.500000007450581,3.75000002607703));
#891=CARTESIAN_POINT('',(9.,0.500000007450581,4.));
#892=CARTESIAN_POINT('',(9.,-3.49999999254942,3.75000002607703));
#893=CARTESIAN_POINT('',(9.,-3.49999999254942,4.));
#894=CARTESIAN_POINT('',(9.,0.500000007450581,3.75000002607703));
#895=CARTESIAN_POINT('Origin',(8.875,0.500000007450581,3.75000002607703));
#896=CARTESIAN_POINT('Origin',(8.875,0.500000007450581,3.75000002607703));
#897=CARTESIAN_POINT('Origin',(8.875,-3.49999999254942,3.75000002607703));
#898=CARTESIAN_POINT('Origin',(8.875,0.500000007450581,3.50000005215406));
#899=CARTESIAN_POINT('',(8.87111128503755,-3.49999999254942,3.62493954909535));
#900=CARTESIAN_POINT('Origin',(8.875,-3.49999999254942,3.50000005215406));
#901=CARTESIAN_POINT('',(8.87111128503755,0.500000007450581,3.62493954909535));
#902=CARTESIAN_POINT('',(8.87111128503755,0.500000007450581,3.62493954909535));
#903=CARTESIAN_POINT('Origin',(8.875,0.500000007450581,3.50000005215406));
#904=CARTESIAN_POINT('Origin',(8.875,0.500000007450581,3.62500005215406));
#905=CARTESIAN_POINT('',(8.875,0.500000007450581,3.62500005215406));
#906=CARTESIAN_POINT('',(8.875,0.500000007450581,3.62500005215406));
#907=CARTESIAN_POINT('',(8.875,-3.49999999254942,3.62500005215406));
#908=CARTESIAN_POINT('',(8.875,-3.49999999254942,3.62500005215406));
#909=CARTESIAN_POINT('',(8.875,0.500000007450581,3.62500005215406));
#910=CARTESIAN_POINT('Origin',(8.875,0.500000007450581,3.75000002607703));
#911=CARTESIAN_POINT('',(8.75,0.500000007450581,3.75000002607703));
#912=CARTESIAN_POINT('Origin',(8.875,0.500000007450581,3.75000002607703));
#913=CARTESIAN_POINT('',(8.75,-3.49999999254942,3.75000002607703));
#914=CARTESIAN_POINT('Origin',(8.875,-3.49999999254942,3.75000002607703));
#915=CARTESIAN_POINT('',(8.75,0.500000007450581,3.75000002607703));
#916=CARTESIAN_POINT('Origin',(8.75,0.500000007450581,4.));
#917=CARTESIAN_POINT('',(8.75,0.500000007450581,4.));
#918=CARTESIAN_POINT('',(8.75,0.500000007450581,4.));
#919=CARTESIAN_POINT('',(8.75,-3.49999999254942,4.));
#920=CARTESIAN_POINT('',(8.75,-3.49999999254942,4.));
#921=CARTESIAN_POINT('',(8.75,0.500000007450581,4.));
#922=CARTESIAN_POINT('Origin',(2.25,0.500000007450581,4.));
#923=CARTESIAN_POINT('',(2.25,0.500000007450581,4.));
#924=CARTESIAN_POINT('',(2.,0.500000007450581,4.));
#925=CARTESIAN_POINT('',(2.25,-3.49999999254942,4.));
#926=CARTESIAN_POINT('',(2.,-3.49999999254942,4.));
#927=CARTESIAN_POINT('',(2.25,0.500000007450581,4.));
#928=CARTESIAN_POINT('Origin',(2.25,0.500000007450581,3.75000002607703));
#929=CARTESIAN_POINT('',(2.25,0.500000007450581,3.75000002607703));
#930=CARTESIAN_POINT('',(2.25,0.500000007450581,0.5));
#931=CARTESIAN_POINT('',(2.25,-3.49999999254942,3.75000002607703));
#932=CARTESIAN_POINT('',(2.25,-3.49999999254942,0.5));
#933=CARTESIAN_POINT('',(2.25,0.500000007450581,3.75000002607703));
#934=CARTESIAN_POINT('Origin',(2.24866491704971,0.500000007450581,3.75000002607703));
#935=CARTESIAN_POINT('',(2.,0.500000007450581,3.75000002607703));
#936=CARTESIAN_POINT('',(2.,-3.49999999254942,3.75000002607703));
#937=CARTESIAN_POINT('Origin',(2.,0.500000007450581,4.));
#938=CARTESIAN_POINT('',(2.,0.500000007450581,4.));
#939=CARTESIAN_POINT('',(2.,0.500000007450581,4.));
#940=CARTESIAN_POINT('',(2.,-3.49999999254942,4.));
#941=CARTESIAN_POINT('',(2.,-3.49999999254942,4.));
#942=CARTESIAN_POINT('',(2.,0.500000007450581,4.));
#943=CARTESIAN_POINT('Origin',(2.,0.500000007450581,4.25));
#944=CARTESIAN_POINT('Origin',(2.,0.500000007450581,4.25));
#945=CARTESIAN_POINT('Origin',(2.,-3.49999999254942,4.25));
#946=CARTESIAN_POINT('Origin',(2.12499995250255,0.500000007450581,3.4999999217689));
#947=CARTESIAN_POINT('',(2.13475882590925,0.500000007450581,3.37461853255266));
#948=CARTESIAN_POINT('Origin',(2.12499995250255,0.500000007450581,3.4999999217689));
#949=CARTESIAN_POINT('',(2.25000002235174,0.500000007450581,3.24994717739282));
#950=CARTESIAN_POINT('Origin',(2.12500001676381,0.500000007450581,3.25000003539026));
#951=CARTESIAN_POINT('',(2.25,0.500000007450581,0.5));
#952=CARTESIAN_POINT('',(2.25,0.500000007450581,0.5));
#953=CARTESIAN_POINT('',(2.,0.500000007450581,0.5));
#954=CARTESIAN_POINT('',(2.,0.500000007450581,0.5));
#955=CARTESIAN_POINT('',(2.00000000004088,0.500000007450581,3.25000003539026));
#956=CARTESIAN_POINT('',(2.,0.500000007450581,0.5));
#957=CARTESIAN_POINT('',(2.1152411435532,0.500000007450581,3.37461852753573));
#958=CARTESIAN_POINT('Origin',(2.12500001676381,0.500000007450581,3.25000003539026));
#959=CARTESIAN_POINT('Origin',(2.12499995250255,0.500000007450581,3.4999999217689));
#960=CARTESIAN_POINT('Origin',(2.12499995250255,0.500000007450581,3.4999999217689));
#961=CARTESIAN_POINT('',(2.13475882590925,-3.49999999254942,3.37461853255266));
#962=CARTESIAN_POINT('Origin',(2.12499995250255,-3.49999999254942,3.4999999217689));
#963=CARTESIAN_POINT('',(2.13475882590925,0.500000007450581,3.37461853255266));
#964=CARTESIAN_POINT('Origin',(2.12500001676381,0.500000007450581,3.25000003539026));
#965=CARTESIAN_POINT('',(2.25000002235174,-3.49999999254942,3.24994717739282));
#966=CARTESIAN_POINT('Origin',(2.12500001676381,-3.49999999254942,3.25000003539026));
#967=CARTESIAN_POINT('',(2.25000002235174,0.500000007450581,3.24994717739282));
#968=CARTESIAN_POINT('Origin',(2.25,0.500000007450581,0.5));
#969=CARTESIAN_POINT('',(2.25,-3.49999999254942,0.5));
#970=CARTESIAN_POINT('',(2.25,-3.49999999254942,0.5));
#971=CARTESIAN_POINT('',(2.25,0.500000007450581,0.5));
#972=CARTESIAN_POINT('Origin',(2.,0.500000007450581,0.5));
#973=CARTESIAN_POINT('',(2.,-3.49999999254942,0.5));
#974=CARTESIAN_POINT('',(2.,-3.49999999254942,0.5));
#975=CARTESIAN_POINT('',(2.,0.500000007450581,0.5));
#976=CARTESIAN_POINT('Origin',(2.,0.500000007450581,3.25000003539026));
#977=CARTESIAN_POINT('',(2.00000000004088,-3.49999999254942,3.25000003539026));
#978=CARTESIAN_POINT('',(2.,-3.49999999254942,0.5));
#979=CARTESIAN_POINT('',(2.00000000004088,0.500000007450581,3.25000003539026));
#980=CARTESIAN_POINT('Origin',(2.12500001676381,0.500000007450581,3.25000003539026));
#981=CARTESIAN_POINT('',(2.1152411435532,-3.49999999254942,3.37461852753573));
#982=CARTESIAN_POINT('',(2.1152411435532,0.500000007450581,3.37461852753573));
#983=CARTESIAN_POINT('Origin',(2.12500001676381,-3.49999999254942,3.25000003539026));
#984=CARTESIAN_POINT('Origin',(2.12499995250255,-3.49999999254942,3.4999999217689));
#985=CARTESIAN_POINT('Origin',(2.12499995250255,-3.49999999254942,3.4999999217689));
#986=CARTESIAN_POINT('Origin',(2.12499995250255,0.500000007450581,3.4999999217689));
#987=CARTESIAN_POINT('Origin',(8.875,0.500000007450581,3.25000005215406));
#988=CARTESIAN_POINT('',(9.,0.500000007450581,3.25000005215406));
#989=CARTESIAN_POINT('',(8.875,0.500000007450581,3.37500005215406));
#990=CARTESIAN_POINT('Origin',(8.875,0.500000007450581,3.25000005215406));
#991=CARTESIAN_POINT('',(9.,0.500000007450581,0.5));
#992=CARTESIAN_POINT('',(9.,0.500000007450581,4.));
#993=CARTESIAN_POINT('',(8.75,0.500000007450581,0.5));
#994=CARTESIAN_POINT('',(9.,0.500000007450581,0.5));
#995=CARTESIAN_POINT('',(8.75,0.500000007450581,3.25000005215406));
#996=CARTESIAN_POINT('',(8.75,0.500000007450581,0.5));
#997=CARTESIAN_POINT('Origin',(8.875,0.500000007450581,3.25000005215406));
#998=CARTESIAN_POINT('Origin',(8.875,-3.49999999254942,3.25000005215406));
#999=CARTESIAN_POINT('',(9.,-3.49999999254942,3.25000005215406));
#1000=CARTESIAN_POINT('',(8.875,-3.49999999254942,3.37500005215406));
#1001=CARTESIAN_POINT('Origin',(8.875,-3.49999999254942,3.25000005215406));
#1002=CARTESIAN_POINT('',(8.75,-3.49999999254942,3.25000005215406));
#1003=CARTESIAN_POINT('Origin',(8.875,-3.49999999254942,3.25000005215406));
#1004=CARTESIAN_POINT('',(8.75,-3.49999999254942,0.5));
#1005=CARTESIAN_POINT('',(8.75,-3.49999999254942,0.5));
#1006=CARTESIAN_POINT('',(9.,-3.49999999254942,0.5));
#1007=CARTESIAN_POINT('',(9.,-3.49999999254942,0.5));
#1008=CARTESIAN_POINT('',(9.,-3.49999999254942,4.));
#1009=CARTESIAN_POINT('Origin',(8.875,0.500000007450581,3.25000005215406));
#1010=CARTESIAN_POINT('',(8.875,0.500000007450581,3.37500005215406));
#1011=CARTESIAN_POINT('',(9.,0.500000007450581,3.25000005215406));
#1012=CARTESIAN_POINT('Origin',(8.75,0.500000007450581,3.25000005215406));
#1013=CARTESIAN_POINT('',(8.75,0.500000007450581,0.5));
#1014=CARTESIAN_POINT('',(8.75,0.500000007450581,3.25000005215406));
#1015=CARTESIAN_POINT('Origin',(8.75,0.500000007450581,0.5));
#1016=CARTESIAN_POINT('',(9.,0.500000007450581,0.5));
#1017=CARTESIAN_POINT('Origin',(9.,0.500000007450581,0.5));
#1018=CARTESIAN_POINT('Origin',(8.875,0.500000007450581,3.25000005215406));
#1019=UNCERTAINTY_MEASURE_WITH_UNIT(LENGTH_MEASURE(0.001),#1023,
'DISTANCE_ACCURACY_VALUE',
'Maximum model space distance between geometric entities at asserted c
onnectivities');
#1020=UNCERTAINTY_MEASURE_WITH_UNIT(LENGTH_MEASURE(0.001),#1023,
'DISTANCE_ACCURACY_VALUE',
'Maximum model space distance between geometric entities at asserted c
onnectivities');
#1021=(
GEOMETRIC_REPRESENTATION_CONTEXT(3)
GLOBAL_UNCERTAINTY_ASSIGNED_CONTEXT((#1019))
GLOBAL_UNIT_ASSIGNED_CONTEXT((#1023,#1025,#1026))
REPRESENTATION_CONTEXT('','3D')
);
#1022=(
GEOMETRIC_REPRESENTATION_CONTEXT(3)
GLOBAL_UNCERTAINTY_ASSIGNED_CONTEXT((#1020))
GLOBAL_UNIT_ASSIGNED_CONTEXT((#1023,#1025,#1026))
REPRESENTATION_CONTEXT('','3D')
);
#1023=(
LENGTH_UNIT()
NAMED_UNIT(*)
SI_UNIT(.CENTI.,.METRE.)
);
#1024=(
LENGTH_UNIT()
NAMED_UNIT(*)
SI_UNIT($,.METRE.)
);
#1025=(
NAMED_UNIT(*)
PLANE_ANGLE_UNIT()
SI_UNIT($,.RADIAN.)
);
#1026=(
NAMED_UNIT(*)
SI_UNIT($,.STERADIAN.)
SOLID_ANGLE_UNIT()
);
#1027=SHAPE_DEFINITION_REPRESENTATION(#1028,#1029);
#1028=PRODUCT_DEFINITION_SHAPE('',$,#1031);
#1029=SHAPE_REPRESENTATION('',(#607),#1021);
#1030=PRODUCT_DEFINITION_CONTEXT('part definition',#1035,'design');
#1031=PRODUCT_DEFINITION('2026-08-26-00-51-53-560','obroom',#1032,#1030);
#1032=PRODUCT_DEFINITION_FORMATION('',$,#1037);
#1033=PRODUCT_RELATED_PRODUCT_CATEGORY('obroom','obroom',(#1037));
#1034=APPLICATION_PROTOCOL_DEFINITION('international standard',
'automotive_design',2009,#1035);
#1035=APPLICATION_CONTEXT(
'Core Data for Automotive Mechanical Design Process');
#1036=PRODUCT_CONTEXT('part definition',#1035,'mechanical');
#1037=PRODUCT('2026-08-26-00-51-53-560','obroom',$,(#1036));
#1038=PRESENTATION_STYLE_ASSIGNMENT((#1045));
#1039=PRESENTATION_STYLE_ASSIGNMENT((#1046));
#1040=PRESENTATION_STYLE_ASSIGNMENT((#1047));
#1041=PRESENTATION_STYLE_ASSIGNMENT((#1048));
#1042=PRESENTATION_STYLE_ASSIGNMENT((#1049));
#1043=PRESENTATION_STYLE_ASSIGNMENT((#1050));
#1044=PRESENTATION_STYLE_ASSIGNMENT((#1051));
#1045=SURFACE_STYLE_USAGE(.BOTH.,#1052);
#1046=SURFACE_STYLE_USAGE(.BOTH.,#1053);
#1047=SURFACE_STYLE_USAGE(.BOTH.,#1054);
#1048=SURFACE_STYLE_USAGE(.BOTH.,#1055);
#1049=SURFACE_STYLE_USAGE(.BOTH.,#1056);
#1050=SURFACE_STYLE_USAGE(.BOTH.,#1057);
#1051=SURFACE_STYLE_USAGE(.BOTH.,#1058);
#1052=SURFACE_SIDE_STYLE('',(#1059));
#1053=SURFACE_SIDE_STYLE('',(#1060));
#1054=SURFACE_SIDE_STYLE('',(#1061));
#1055=SURFACE_SIDE_STYLE('',(#1062));
#1056=SURFACE_SIDE_STYLE('',(#1063));
#1057=SURFACE_SIDE_STYLE('',(#1064));
#1058=SURFACE_SIDE_STYLE('',(#1065));
#1059=SURFACE_STYLE_FILL_AREA(#1066);
#1060=SURFACE_STYLE_FILL_AREA(#1067);
#1061=SURFACE_STYLE_FILL_AREA(#1068);
#1062=SURFACE_STYLE_FILL_AREA(#1069);
#1063=SURFACE_STYLE_FILL_AREA(#1070);
#1064=SURFACE_STYLE_FILL_AREA(#1071);
#1065=SURFACE_STYLE_FILL_AREA(#1072);
#1066=FILL_AREA_STYLE('Steel - Satin',(#1073));
#1067=FILL_AREA_STYLE('PEEK',(#1074));
#1068=FILL_AREA_STYLE('Paek (Beige)',(#1075));
#1069=FILL_AREA_STYLE('Paint - Metallic (Yellow)',(#1076));
#1070=FILL_AREA_STYLE('Plastic - Translucent Glossy (Blue)',(#1077));
#1071=FILL_AREA_STYLE('Granite - Black and White',(#1078));
#1072=FILL_AREA_STYLE('Paint - Metallic (Silver)',(#1079));
#1073=FILL_AREA_STYLE_COLOUR('Steel - Satin',#1080);
#1074=FILL_AREA_STYLE_COLOUR('PEEK',#1081);
#1075=FILL_AREA_STYLE_COLOUR('Paek (Beige)',#1082);
#1076=FILL_AREA_STYLE_COLOUR('Paint - Metallic (Yellow)',#1083);
#1077=FILL_AREA_STYLE_COLOUR('Plastic - Translucent Glossy (Blue)',#1084);
#1078=FILL_AREA_STYLE_COLOUR('Granite - Black and White',#1085);
#1079=FILL_AREA_STYLE_COLOUR('Paint - Metallic (Silver)',#1086);
#1080=COLOUR_RGB('Steel - Satin',0.627450980392157,0.627450980392157,0.627450980392157);
#1081=COLOUR_RGB('PEEK',0.6,0.509803921568627,0.368627450980392);
#1082=COLOUR_RGB('Paek (Beige)',0.898039215686275,0.792156862745098,0.619607843137255);
#1083=COLOUR_RGB('Paint - Metallic (Yellow)',0.909803921568627,0.67843137254902,
0.137254901960784);
#1084=COLOUR_RGB('Plastic - Translucent Glossy (Blue)',0.188235294117647,
0.231372549019608,0.588235294117647);
#1085=COLOUR_RGB('Granite - Black and White',0.,0.,0.);
#1086=COLOUR_RGB('Paint - Metallic (Silver)',0.984313725490196,0.980392156862745,
0.96078431372549);
ENDSEC;
END-ISO-10303-21;
